<?xml version="1.0" encoding="UTF-8"?>
<svg width="56px" height="85px" viewBox="0 0 56 85" version="1.1" xmlns="http://www.w3.org/2000/svg" xmlns:xlink="http://www.w3.org/1999/xlink" xmlns:sketch="http://www.bohemiancoding.com/sketch/ns">
    <title>ampoule</title>
    <description>Created with Sketch (http://www.bohemiancoding.com/sketch)</description>
    <defs></defs>
    <g id="Page-1" stroke="none" stroke-width="1" fill="none" fill-rule="evenodd" sketch:type="MSPage">
        <g id="ampoule" sketch:type="MSLayerGroup" fill="#FFFFFF">
            <path d="M36,79.6875 L20,79.6875 C18.5293333,79.6875 17.3333333,78.4948438 17.3333333,77.03125 L17.3333333,73.046875 L20,73.046875 L20,77.03125 L36,77.03125 L36,73.046875 L38.6666667,73.046875 L38.6666667,77.03125 C38.6666667,78.4948438 37.4706667,79.6875 36,79.6875" id="Fill-1" sketch:type="MSShapeGroup"></path>
            <path d="M30.6666667,85 L25.3333333,85 C23.8626667,85 22.6666667,83.8073438 22.6666667,82.34375 L22.6666667,78.359375 L25.3333333,78.359375 L25.3333333,82.34375 L30.6666667,82.34375 L30.6666667,78.359375 L33.3333333,78.359375 L33.3333333,82.34375 C33.3333333,83.8073438 32.1373333,85 30.6666667,85" id="Fill-2" sketch:type="MSShapeGroup"></path>
            <path d="M14.6666667,71.71875 L41.3333333,71.71875 L41.3333333,74.375 L14.6666667,74.375 L14.6666667,71.71875 Z" id="Fill-3" sketch:type="MSShapeGroup"></path>
            <path d="M14.6666667,66.40625 L41.3333333,66.40625 L41.3333333,69.0625 L14.6666667,69.0625 L14.6666667,66.40625 Z" id="Fill-4" sketch:type="MSShapeGroup"></path>
            <path d="M34.6666667,23.90625 L37.3333333,23.90625 L37.3333333,26.5625 L34.6666667,26.5625 L34.6666667,23.90625 Z" id="Fill-5" sketch:type="MSShapeGroup"></path>
            <path d="M40,29.21875 L42.6666667,29.21875 L42.6666667,31.875 L40,31.875 L40,29.21875 Z" id="Fill-6" sketch:type="MSShapeGroup"></path>
            <path d="M29.3333333,23.90625 L32,23.90625 L32,26.5625 L29.3333333,26.5625 L29.3333333,23.90625 Z" id="Fill-7" sketch:type="MSShapeGroup"></path>
            <path d="M40,23.90625 L42.6666667,23.90625 L42.6666667,26.5625 L40,26.5625 L40,23.90625 Z" id="Fill-8" sketch:type="MSShapeGroup"></path>
            <path d="M40,34.53125 L42.6666667,34.53125 L42.6666667,37.1875 L40,37.1875 L40,34.53125 Z" id="Fill-9" sketch:type="MSShapeGroup"></path>
            <path d="M18.6666667,29.21875 L21.3333333,29.21875 L21.3333333,31.875 L18.6666667,31.875 L18.6666667,29.21875 Z" id="Fill-10" sketch:type="MSShapeGroup"></path>
            <path d="M13.3333333,29.21875 L16,29.21875 L16,31.875 L13.3333333,31.875 L13.3333333,29.21875 Z" id="Fill-11" sketch:type="MSShapeGroup"></path>
            <path d="M24,29.21875 L26.6666667,29.21875 L26.6666667,31.875 L24,31.875 L24,29.21875 Z" id="Fill-12" sketch:type="MSShapeGroup"></path>
            <path d="M18.6666667,34.53125 L21.3333333,34.53125 L21.3333333,37.1875 L18.6666667,37.1875 L18.6666667,34.53125 Z" id="Fill-13" sketch:type="MSShapeGroup"></path>
            <path d="M13.3333333,34.53125 L16,34.53125 L16,37.1875 L13.3333333,37.1875 L13.3333333,34.53125 Z" id="Fill-14" sketch:type="MSShapeGroup"></path>
            <path d="M13.3333333,23.90625 L16,23.90625 L16,26.5625 L13.3333333,26.5625 L13.3333333,23.90625 Z" id="Fill-15" sketch:type="MSShapeGroup"></path>
            <path d="M34.6666667,18.59375 L37.3333333,18.59375 L37.3333333,21.25 L34.6666667,21.25 L34.6666667,18.59375 Z" id="Fill-16" sketch:type="MSShapeGroup"></path>
            <path d="M29.3333333,18.59375 L32,18.59375 L32,21.25 L29.3333333,21.25 L29.3333333,18.59375 Z" id="Fill-17" sketch:type="MSShapeGroup"></path>
            <path d="M40,18.59375 L42.6666667,18.59375 L42.6666667,21.25 L40,21.25 L40,18.59375 Z" id="Fill-18" sketch:type="MSShapeGroup"></path>
            <path d="M13.3333333,18.59375 L16,18.59375 L16,21.25 L13.3333333,21.25 L13.3333333,18.59375 Z" id="Fill-19" sketch:type="MSShapeGroup"></path>
            <path d="M34.6666667,13.28125 L37.3333333,13.28125 L37.3333333,15.9375 L34.6666667,15.9375 L34.6666667,13.28125 Z" id="Fill-20" sketch:type="MSShapeGroup"></path>
            <path d="M29.3333333,13.28125 L32,13.28125 L32,15.9375 L29.3333333,15.9375 L29.3333333,13.28125 Z" id="Fill-21" sketch:type="MSShapeGroup"></path>
            <path d="M18.6666667,13.28125 L21.3333333,13.28125 L21.3333333,15.9375 L18.6666667,15.9375 L18.6666667,13.28125 Z" id="Fill-22" sketch:type="MSShapeGroup"></path>
            <path d="M24,13.28125 L26.6666667,13.28125 L26.6666667,15.9375 L24,15.9375 L24,13.28125 Z" id="Fill-23" sketch:type="MSShapeGroup"></path>
            <path d="M34.6666667,39.84375 L37.3333333,39.84375 L37.3333333,42.5 L34.6666667,42.5 L34.6666667,39.84375 Z" id="Fill-24" sketch:type="MSShapeGroup"></path>
            <path d="M29.3333333,39.84375 L32,39.84375 L32,42.5 L29.3333333,42.5 L29.3333333,39.84375 Z" id="Fill-25" sketch:type="MSShapeGroup"></path>
            <path d="M18.6666667,39.84375 L21.3333333,39.84375 L21.3333333,42.5 L18.6666667,42.5 L18.6666667,39.84375 Z" id="Fill-26" sketch:type="MSShapeGroup"></path>
            <path d="M24,39.84375 L26.6666667,39.84375 L26.6666667,42.5 L24,42.5 L24,39.84375 Z" id="Fill-27" sketch:type="MSShapeGroup"></path>
            <path d="M24,34.53125 L26.6666667,34.53125 L26.6666667,37.1875 L24,37.1875 L24,34.53125 Z" id="Fill-28" sketch:type="MSShapeGroup"></path>
            <path d="M18.6666667,18.59375 L26.6666667,18.59375 L26.6666667,26.5625 L18.6666667,26.5625 L18.6666667,18.59375 Z M21.3333333,23.90625 L24,23.90625 L24,21.25 L21.3333333,21.25 L21.3333333,23.90625 Z" id="Fill-29" sketch:type="MSShapeGroup"></path>
            <path d="M29.3333333,29.21875 L37.3333333,29.21875 L37.3333333,37.1875 L29.3333333,37.1875 L29.3333333,29.21875 Z M32,34.53125 L34.6666667,34.53125 L34.6666667,31.875 L32,31.875 L32,34.53125 Z" id="Fill-30" sketch:type="MSShapeGroup"></path>
            <path d="M40,63.75 L16,63.75 C15.412,63.75 14.892,63.3648438 14.7226667,62.8030469 L10.844,49.9361719 C3.94666667,44.6090625 0,36.6004688 0,27.890625 C0,27.4125 0.258666667,26.9715625 0.676,26.7351563 C1.09333333,26.49875 1.60666667,26.5053906 2.02,26.7524219 L8.68666667,30.7367969 L7.31333333,33.0132031 L2.77866667,30.3038281 C3.44266667,37.368125 7.012,43.7484375 12.7986667,48.078125 C13.0253333,48.248125 13.192,48.4871875 13.2746667,48.7594531 L16.992,61.09375 L39.008,61.09375 L42.7226667,48.7594531 L45.2773333,49.5217969 L41.2773333,62.8030469 C41.108,63.3648438 40.588,63.75 40,63.75" id="Fill-31" sketch:type="MSShapeGroup"></path>
            <path d="M28,55.78125 C27.4613333,55.78125 26.9746667,55.4585156 26.768,54.9617969 C26.5613333,54.4650781 26.676,53.8939844 27.0573333,53.5141406 L33.724,46.8735156 L35.6093333,48.7514844 L31.4533333,52.89125 C43.7946667,51.2085156 53.3333333,40.6379687 53.3333333,27.890625 C53.3333333,25.3074219 52.9426667,22.7600781 52.1746667,20.3216406 C51.312,17.5896875 49.9973333,15.0410156 48.2666667,12.7460156 L50.3973333,11.1496094 C52.312,13.6876562 53.7653333,16.5046094 54.7186667,19.5247656 C55.5693333,22.2208594 56,25.0364844 56,27.890625 C56,43.2689844 43.44,55.78125 28,55.78125" id="Fill-32" sketch:type="MSShapeGroup"></path>
            <path d="M3.93733333,20.325625 L1.39733333,19.5194531 C5.128,7.84523437 15.82,0 28,0 C34.1146667,0 39.9226667,1.9284375 44.8,5.57546875 C45.016,5.7375 45.1786667,5.96195312 45.264,6.21695312 C45.4973333,6.91289062 45.1213333,7.66992187 44.4226667,7.90101562 L36.4226667,10.5572656 L35.5786667,8.0378125 L41.0133333,6.23289062 C37.0946667,3.88609375 32.6453333,2.65625 28,2.65625 C16.9853333,2.65625 7.316,9.75773438 3.93733333,20.325625" id="Fill-33" sketch:type="MSShapeGroup"></path>
        </g>
    </g>
</svg>