<?xml version="1.0" encoding="UTF-8"?>
<svg width="38px" height="40px" viewBox="0 0 38 40" version="1.1" xmlns="http://www.w3.org/2000/svg" xmlns:xlink="http://www.w3.org/1999/xlink" xmlns:sketch="http://www.bohemiancoding.com/sketch/ns">
    <title>clock</title>
    <description>Created with Sketch (http://www.bohemiancoding.com/sketch)</description>
    <defs></defs>
    <g id="Page-1" stroke="none" stroke-width="1" fill="none" fill-rule="evenodd" sketch:type="MSPage">
        <g id="clock" sketch:type="MSLayerGroup" transform="translate(0.000000, 1.000000)" fill="#E95459">
            <path d="M32.1607038,23.9871607 L32.1607038,22.4658036 L32.7791789,22.4658036 C33.1193402,22.4658036 33.397654,22.1757143 33.397654,21.8211607 C33.397654,21.4666071 33.1193402,21.1765179 32.7791789,21.1765179 L21.6466276,21.1765179 C21.3064663,21.1765179 21.0281525,21.4666071 21.0281525,21.8211607 C21.0281525,22.1757143 21.3064663,22.4658036 21.6466276,22.4658036 L22.2651026,22.4658036 L22.2651026,23.9871607 C22.2651026,26.2633946 23.4092815,28.3385 25.2523372,29.556875 C23.4092815,30.7758946 22.2651026,32.8451982 22.2651026,35.1272339 L22.2651026,36.6479464 L21.6466276,36.6479464 C21.3064663,36.6479464 21.0281525,36.9380357 21.0281525,37.2925893 C21.0281525,37.6471429 21.3064663,37.9372321 21.6466276,37.9372321 L32.7791789,37.9372321 C33.1193402,37.9372321 33.397654,37.6471429 33.397654,37.2925893 C33.397654,36.9380357 33.1193402,36.6479464 32.7791789,36.6479464 L32.1607038,36.6479464 L32.1607038,35.1272339 C32.1607038,32.851 31.0171434,30.7758946 29.1734692,29.556875 C31.0171434,28.3385 32.1607038,26.2691964 32.1607038,23.9871607 M30.9237537,35.1272339 L30.9237537,36.6479464 L23.5020528,36.6479464 L23.5020528,35.1272339 C23.5020528,32.986375 24.7575572,31.0653393 26.7181232,30.2015179 L27.713868,30.2015179 C29.6682493,31.0653393 30.9237537,32.986375 30.9237537,35.1272339 M27.7076833,28.9122321 L26.7181232,28.9122321 C24.7637419,28.0484107 23.5020528,26.1280196 23.5020528,23.9871607 L23.5020528,22.4658036 L30.9237537,22.4658036 L30.9237537,23.9871607 C30.9237537,26.1280196 29.6682493,28.0484107 27.7076833,28.9122321" id="Fill-1" sketch:type="MSShapeGroup"></path>
            <path d="M19.1727273,16.6769107 L19.1727273,10.1402321 C19.1727273,9.78567857 18.8944135,9.49558929 18.5542522,9.49558929 C18.2140909,9.49558929 17.9357771,9.78567857 17.9357771,10.1402321 L17.9357771,16.6769107 C17.045173,16.9154286 16.3462962,17.6567679 16.1421994,18.5979464 L11.7510264,18.5979464 C11.4108651,18.5979464 11.1325513,18.8880357 11.1325513,19.2425893 C11.1325513,19.5971429 11.4108651,19.8872321 11.7510264,19.8872321 L16.1916774,19.8872321 C16.4947302,20.9573393 17.4348123,21.7438036 18.5542522,21.7438036 C19.9210821,21.7438036 21.0281525,20.5898929 21.0281525,19.1652321 C21.0281525,17.9661964 20.2365044,16.967 19.1727273,16.6769107 M18.5542522,20.4545179 C17.8739296,20.4545179 17.3173021,19.8749839 17.3173021,19.1652321 C17.3173021,18.456125 17.8739296,17.8759464 18.5542522,17.8759464 C19.2345748,17.8759464 19.7912023,18.456125 19.7912023,19.1652321 C19.7912023,19.8749839 19.2345748,20.4545179 18.5542522,20.4545179" id="Fill-2" sketch:type="MSShapeGroup"></path>
            <path d="M18.5542522,6.272375 C18.8944135,6.272375 19.1727273,5.98228571 19.1727273,5.62773214 L19.1727273,4.98308929 C19.1727273,4.62853571 18.8944135,4.33844643 18.5542522,4.33844643 C18.2140909,4.33844643 17.9357771,4.62853571 17.9357771,4.98308929 L17.9357771,5.62773214 C17.9357771,5.98228571 18.2140909,6.272375 18.5542522,6.272375" id="Fill-3" sketch:type="MSShapeGroup"></path>
            <path d="M32.1607038,19.809875 C32.5008651,19.809875 32.7791789,19.5204304 32.7791789,19.1652321 C32.7791789,18.8106786 32.5008651,18.5205893 32.1607038,18.5205893 L31.5422287,18.5205893 C31.2020674,18.5205893 30.9237537,18.8106786 30.9237537,19.1652321 C30.9237537,19.5204304 31.2020674,19.809875 31.5422287,19.809875 L32.1607038,19.809875" id="Fill-4" sketch:type="MSShapeGroup"></path>
            <path d="M4.94780059,18.5205893 C4.6076393,18.5205893 4.32932551,18.8106786 4.32932551,19.1652321 C4.32932551,19.5197857 4.6076393,19.809875 4.94780059,19.809875 L5.56627566,19.809875 C5.90643695,19.809875 6.18475073,19.5197857 6.18475073,19.1652321 C6.18475073,18.8106786 5.90643695,18.5205893 5.56627566,18.5205893 L4.94780059,18.5205893" id="Fill-5" sketch:type="MSShapeGroup"></path>
            <path d="M28.1777243,10.0499821 L28.6168416,9.59228571 C28.8586654,9.340875 28.8586654,8.93475 28.6168416,8.68333929 C28.3756364,8.43192857 27.9859971,8.43192857 27.7454103,8.68333929 L27.306293,9.14103571 C27.0644692,9.39244643 27.0644692,9.79857143 27.306293,10.0499821 C27.4293695,10.1789107 27.5839883,10.2369286 27.7454103,10.2369286 C27.9062138,10.2369286 28.0546478,10.1724643 28.1777243,10.0499821" id="Fill-6" sketch:type="MSShapeGroup"></path>
            <path d="M8.93078006,28.2804821 L8.49166276,28.7381786 C8.25045748,28.9895893 8.25045748,29.3950696 8.49166276,29.647125 C8.61535777,29.7754089 8.76997654,29.8340714 8.93078006,29.8340714 C9.09158358,29.8340714 9.24620235,29.7696071 9.36989736,29.647125 L9.80901466,29.1894286 C10.0502199,28.9380179 10.0502199,28.5318929 9.80901466,28.2804821 C9.56780938,28.0284268 9.17198534,28.0284268 8.93078006,28.2804821" id="Fill-7" sketch:type="MSShapeGroup"></path>
            <path d="M9.80901466,9.13458929 L9.36989736,8.67689286 C9.12869208,8.42548214 8.73905279,8.42548214 8.49784751,8.67689286 C8.25664223,8.92830357 8.25664223,9.33442857 8.49784751,9.58583929 L8.93696481,10.0435357 C9.06065982,10.1724643 9.21527859,10.2304821 9.37608211,10.2304821 C9.53688563,10.2304821 9.6915044,10.1660179 9.81519941,10.0435357 C10.0502199,9.79857143 10.0502199,9.386 9.80901466,9.13458929" id="Fill-8" sketch:type="MSShapeGroup"></path>
            <path d="M18.5542522,-0.0966964286 C8.32467449,-0.0966964286 0,8.58019643 0,19.2425893 C0,28.158 5.78892669,35.874375 14.0764927,38.0145893 C14.1259707,38.0281268 14.1754487,38.0339286 14.2249267,38.0339286 C14.5032405,38.0339286 14.7568152,37.8411804 14.8248475,37.5446446 C14.9052493,37.1965375 14.7073372,36.8484304 14.3733607,36.7646268 C6.64242229,34.7655893 1.23695015,27.5584821 1.23695015,19.2425893 C1.23695015,9.28930357 9.00499707,1.19258929 18.5542522,1.19258929 C28.1035073,1.19258929 35.8715543,9.28930357 35.8715543,19.2425893 C35.8715543,21.4801446 35.481915,23.6648393 34.7088211,25.7470357 C34.5851261,26.0764482 34.7459296,26.4503411 35.0613519,26.578625 C35.3767742,26.7075536 35.7354897,26.5399464 35.8591848,26.2118232 C36.6879413,23.9813589 37.1085044,21.6342143 37.1085044,19.2425893 C37.1085044,8.58019643 28.7838299,-0.0966964286 18.5542522,-0.0966964286" id="Fill-9" sketch:type="MSShapeGroup"></path>
        </g>
    </g>
</svg>