<?xml version="1.0" encoding="UTF-8"?>
<svg width="85px" height="85px" viewBox="0 0 85 85" version="1.1" xmlns="http://www.w3.org/2000/svg" xmlns:xlink="http://www.w3.org/1999/xlink" xmlns:sketch="http://www.bohemiancoding.com/sketch/ns">
    <title>conseil</title>
    <description>Created with Sketch (http://www.bohemiancoding.com/sketch)</description>
    <defs></defs>
    <g id="Page-1" stroke="none" stroke-width="1" fill="none" fill-rule="evenodd" sketch:type="MSPage">
        <g id="conseil" sketch:type="MSLayerGroup" fill="#FFFFFF">
            <path d="M62.421875,77.03125 L83.671875,77.03125 L83.671875,79.6875 L62.421875,79.6875 L62.421875,77.03125 Z" id="Fill-1" sketch:type="MSShapeGroup"></path>
            <path d="M78.359375,85 C78.019375,85 77.679375,84.8698438 77.4203906,84.6108594 C76.9010938,84.0915625 76.9010938,83.2521875 77.4203906,82.7328906 L81.7939063,78.359375 L77.4203906,73.9858594 C76.9010938,73.4665625 76.9010938,72.6271875 77.4203906,72.1078906 C77.9396875,71.5885938 78.7790625,71.5885938 79.2983594,72.1078906 L84.6108594,77.4203906 C85.1301562,77.9396875 85.1301562,78.7790625 84.6108594,79.2983594 L79.2983594,84.6108594 C79.039375,84.8698438 78.699375,85 78.359375,85" id="Fill-2" sketch:type="MSShapeGroup"></path>
            <path d="M47.8125,13.28125 C47.4725,13.28125 47.1325,13.1510938 46.8735156,12.8921094 L41.5610156,7.57960937 C41.0417188,7.0603125 41.0417188,6.2209375 41.5610156,5.70164062 L46.8735156,0.389140625 C47.3928125,-0.13015625 48.2321875,-0.13015625 48.7514844,0.389140625 C49.2707813,0.9084375 49.2707813,1.7478125 48.7514844,2.26710938 L44.3779688,6.640625 L48.7514844,11.0141406 C49.2707813,11.5334375 49.2707813,12.3728125 48.7514844,12.8921094 C48.4925,13.1510938 48.1525,13.28125 47.8125,13.28125" id="Fill-3" sketch:type="MSShapeGroup"></path>
            <path d="M42.5,79.6875 L0,79.6875 L0,77.03125 L42.5,77.03125 C61.54,77.03125 77.03125,61.5413281 77.03125,42.5 C77.03125,23.4586719 61.54,7.96875 42.5,7.96875 L42.5,5.3125 C63.0049219,5.3125 79.6875,21.9950781 79.6875,42.5 C79.6875,63.0049219 63.0049219,79.6875 42.5,79.6875" id="Fill-4" sketch:type="MSShapeGroup"></path>
            <path d="M35.3520313,51.796875 L24.4135938,51.796875 L19.7651563,42.5 L24.4135938,33.203125 L35.3520313,33.203125 L40.0004688,42.5 L35.3520313,51.796875 L35.3520313,51.796875 Z M26.0551563,49.140625 L33.7104688,49.140625 L37.0307813,42.5 L33.7104688,35.859375 L26.0551563,35.859375 L22.7348438,42.5 L26.0551563,49.140625 L26.0551563,49.140625 Z" id="Fill-5" sketch:type="MSShapeGroup"></path>
            <path d="M53.9457813,62.421875 L43.0073437,62.421875 L38.3589063,53.125 L43.0073437,43.828125 L53.9457813,43.828125 L58.5942188,53.125 L53.9457813,62.421875 L53.9457813,62.421875 Z M44.6489063,59.765625 L52.3042187,59.765625 L55.6245312,53.125 L52.3042187,46.484375 L44.6489063,46.484375 L41.3285938,53.125 L44.6489063,59.765625 L44.6489063,59.765625 Z" id="Fill-6" sketch:type="MSShapeGroup"></path>
            <path d="M53.9457813,41.171875 L43.0073437,41.171875 L38.3589063,31.875 L43.0073437,22.578125 L53.9457813,22.578125 L58.5942188,31.875 L53.9457813,41.171875 L53.9457813,41.171875 Z M44.6489063,38.515625 L52.3042187,38.515625 L55.6245312,31.875 L52.3042187,25.234375 L44.6489063,25.234375 L41.3285938,31.875 L44.6489063,38.515625 L44.6489063,38.515625 Z" id="Fill-7" sketch:type="MSShapeGroup"></path>
            <path d="M59.765625,45.15625 C58.3007031,45.15625 57.109375,43.9635938 57.109375,42.5 C57.109375,41.0350781 58.3007031,39.84375 59.765625,39.84375 C61.2305469,39.84375 62.421875,41.0350781 62.421875,42.5 C62.421875,43.9635938 61.2305469,45.15625 59.765625,45.15625" id="Fill-8" sketch:type="MSShapeGroup"></path>
            <path d="M33.203125,59.765625 C31.7382031,59.765625 30.546875,58.5729688 30.546875,57.109375 C30.546875,55.6444531 31.7382031,54.453125 33.203125,54.453125 C34.6680469,54.453125 35.859375,55.6444531 35.859375,57.109375 C35.859375,58.5729688 34.6680469,59.765625 33.203125,59.765625" id="Fill-9" sketch:type="MSShapeGroup"></path>
            <path d="M33.203125,30.546875 C31.7382031,30.546875 30.546875,29.3542187 30.546875,27.890625 C30.546875,26.4257031 31.7382031,25.234375 33.203125,25.234375 C34.6680469,25.234375 35.859375,26.4257031 35.859375,27.890625 C35.859375,29.3542187 34.6680469,30.546875 33.203125,30.546875" id="Fill-10" sketch:type="MSShapeGroup"></path>
            <path d="M23.2222656,74.3072656 C12.0075781,67.4953125 5.3125,55.6046094 5.3125,42.5 C5.3125,24.5570312 18.0996875,9.17734375 35.7172656,5.93007812 L36.1980469,8.54117187 C19.8421875,11.5573437 7.96875,25.8386719 7.96875,42.5 C7.96875,54.6696094 14.1870313,65.7103125 24.6008594,72.0375 L23.2222656,74.3072656" id="Fill-11" sketch:type="MSShapeGroup"></path>
        </g>
    </g>
</svg>