<?xml version="1.0" encoding="UTF-8"?>
<svg width="312px" height="38px" viewBox="0 0 312 38" version="1.1" xmlns="http://www.w3.org/2000/svg" xmlns:xlink="http://www.w3.org/1999/xlink" xmlns:sketch="http://www.bohemiancoding.com/sketch/ns">
    <title>Imported Layers</title>
    <description>Created with Sketch (http://www.bohemiancoding.com/sketch)</description>
    <defs></defs>
    <g id="Page-1" stroke="none" stroke-width="1" fill="none" fill-rule="evenodd" sketch:type="MSPage">
        <g id="Imported-Layers" sketch:type="MSLayerGroup" transform="translate(0.000000, 1.000000)">
            <path d="M0,36.361 L0,5.594 L13.746,5.594 C16.175,5.594 18.42,5.933 20.48,6.609 C22.54,7.285 24.324,8.277 25.831,9.584 C27.337,10.891 28.514,12.498 29.359,14.404 C30.205,16.311 30.628,18.494 30.628,20.954 C30.628,23.415 30.205,25.598 29.359,27.504 C28.514,29.411 27.337,31.026 25.831,32.347 C24.324,33.67 22.54,34.67 20.48,35.346 C18.42,36.022 16.19,36.361 13.792,36.361 L0,36.361 L0,36.361 Z M13.746,28.242 C14.914,28.242 15.96,28.043 16.883,27.642 C17.805,27.243 18.581,26.713 19.212,26.051 C19.842,25.39 20.326,24.614 20.665,23.722 C21.003,22.83 21.172,21.908 21.172,20.954 C21.172,18.864 20.564,17.134 19.35,15.765 C18.135,14.397 16.283,13.712 13.792,13.712 L9.317,13.712 L9.317,28.242 L13.746,28.242 L13.746,28.242 Z" id="Fill-1" fill="#E95459" sketch:type="MSShapeGroup"></path>
            <path d="M53.092,36.361 L51.984,32.763 L40.914,32.763 L39.806,36.361 L29.244,36.361 L40.591,5.594 L52.307,5.594 L63.654,36.361 L53.092,36.361 L53.092,36.361 Z M46.449,14.727 L43.405,24.644 L49.493,24.644 L46.449,14.727 L46.449,14.727 Z" id="Fill-2" fill="#E95459" sketch:type="MSShapeGroup"></path>
            <path d="M69.144,36.361 L69.144,13.713 L60.887,13.713 L60.887,5.594 L86.672,5.594 L86.672,13.713 L78.461,13.713 L78.461,36.361 L69.144,36.361" id="Fill-3" fill="#E95459" sketch:type="MSShapeGroup"></path>
            <path d="M107.751,36.469 L106.643,32.872 L95.573,32.872 L94.465,36.469 L83.903,36.469 L95.25,5.703 L106.966,5.703 L118.313,36.469 L107.751,36.469 L107.751,36.469 Z M101.108,14.836 L98.064,24.753 L104.152,24.753 L101.108,14.836 L101.108,14.836 Z" id="Fill-4" fill="#E95459" sketch:type="MSShapeGroup"></path>
            <path d="M133.858,13.298 C132.751,13.298 131.736,13.498 130.813,13.897 C129.891,14.298 129.098,14.843 128.438,15.535 C127.776,16.226 127.269,17.042 126.916,17.979 C126.562,18.917 126.385,19.924 126.385,21 C126.385,22.078 126.562,23.085 126.916,24.023 C127.269,24.96 127.776,25.775 128.438,26.467 C129.098,27.158 129.891,27.705 130.813,28.104 C131.736,28.505 132.751,28.703 133.858,28.703 C135.242,28.703 136.479,28.259 137.571,27.367 C138.662,26.475 139.408,25.429 139.808,24.23 L147.835,27.92 C147.373,28.935 146.765,29.98 146.012,31.057 C145.258,32.132 144.321,33.101 143.199,33.963 C142.076,34.823 140.746,35.531 139.209,36.084 C137.671,36.638 135.887,36.915 133.858,36.915 C131.459,36.915 129.222,36.53 127.146,35.762 C125.071,34.992 123.279,33.909 121.772,32.509 C120.265,31.111 119.082,29.435 118.22,27.481 C117.359,25.529 116.929,23.368 116.929,21 C116.929,18.632 117.359,16.472 118.22,14.52 C119.082,12.567 120.265,10.892 121.772,9.492 C123.279,8.093 125.071,7.008 127.146,6.239 C129.222,5.472 131.459,5.087 133.858,5.087" id="Fill-5" fill="#FFFFFF" sketch:type="MSShapeGroup"></path>
            <path d="M133.858,37 C131.459,37 129.222,36.615 127.146,35.847 C125.071,35.078 123.279,33.994 121.772,32.595 C120.265,31.195 119.082,29.52 118.22,27.567 C117.359,25.614 116.929,23.454 116.929,21.086 C116.929,18.718 117.359,16.558 118.22,14.605 C119.082,12.652 120.265,10.977 121.772,9.578 C123.279,8.178 125.071,7.094 127.146,6.326 C129.222,5.557 131.459,5.172 133.858,5.172 C135.887,5.172 137.671,5.449 139.209,6.002 C140.746,6.556 142.076,7.263 143.199,8.125 C144.321,8.985 145.258,9.954 146.012,11.03 C146.765,12.106 147.373,13.152 147.835,14.167 L139.808,17.857 C139.408,16.658 138.662,15.612 137.571,14.721 C136.479,13.829 135.242,13.383 133.858,13.383 C132.751,13.383 131.736,13.583 130.813,13.982 C129.891,14.382 129.098,14.928 128.438,15.62 C127.776,16.312 127.269,17.126 126.916,18.065 C126.562,19.002 126.385,20.009 126.385,21.086 C126.385,22.162 126.562,23.169 126.916,24.107 C127.269,25.045 127.776,25.86 128.438,26.552 C129.098,27.244 129.891,27.79 130.813,28.189 C131.736,28.589 132.751,28.789 133.858,28.789" id="Fill-6" fill="#FFFFFF" sketch:type="MSShapeGroup"></path>
            <path d="M157.336,36.361 L157.336,13.713 L148.45,13.713 L148.45,5.594 L174.864,5.594 L174.864,13.713 L166.654,13.713 L166.654,36.361 L157.336,36.361" id="Fill-7" fill="#FFFFFF" sketch:type="MSShapeGroup"></path>
            <path d="M178.185,5.594 L187.502,5.594 L187.502,36.361 L178.185,36.361 L178.185,5.594 Z" id="Fill-8" fill="#FFFFFF" sketch:type="MSShapeGroup"></path>
            <path d="M200.51,36.361 L189.163,5.594 L199.726,5.594 L206.368,26.305 L213.011,5.594 L223.573,5.594 L212.226,36.361 L200.51,36.361" id="Fill-9" fill="#FFFFFF" sketch:type="MSShapeGroup"></path>
            <path d="M225.233,5.594 L234.55,5.594 L234.55,36.361 L225.233,36.361 L225.233,5.594 Z" id="Fill-10" fill="#FFFFFF" sketch:type="MSShapeGroup"></path>
            <path d="M251.326,36.914 C248.035,36.914 245.245,36.468 242.954,35.577 C240.663,34.685 238.687,33.501 237.027,32.025 L241.87,25.106 C243.038,26.213 244.461,27.151 246.137,27.919 C247.812,28.688 249.695,29.073 251.787,29.073 C252.679,29.073 253.471,28.95 254.163,28.704 C254.854,28.458 255.201,28.028 255.201,27.412 C255.201,26.92 254.777,26.559 253.932,26.328 C253.086,26.098 252.025,25.875 250.75,25.659 C249.473,25.444 248.097,25.16 246.621,24.806 C245.145,24.453 243.768,23.914 242.493,23.191 C241.217,22.469 240.155,21.485 239.31,20.239 C238.464,18.994 238.042,17.356 238.042,15.327 C238.042,14.035 238.31,12.775 238.848,11.544 C239.387,10.315 240.193,9.223 241.27,8.269 C242.347,7.317 243.676,6.556 245.261,5.986 C246.844,5.417 248.697,5.133 250.819,5.133 C253.34,5.133 255.708,5.487 257.922,6.194 C260.137,6.901 262.12,7.977 263.873,9.423 L258.89,16.019 C257.537,15.004 256.061,14.243 254.463,13.735 C252.863,13.228 251.326,12.975 249.85,12.975 C248.928,12.975 248.305,13.105 247.982,13.367 C247.659,13.628 247.498,13.959 247.498,14.358 C247.498,14.851 247.922,15.22 248.769,15.465 C249.616,15.712 250.673,15.95 251.937,16.18 C253.201,16.411 254.582,16.71 256.077,17.08 C257.572,17.449 258.952,17.987 260.217,18.694 C261.48,19.402 262.537,20.355 263.385,21.554 C264.232,22.753 264.657,24.307 264.657,26.213 C264.657,27.904 264.347,29.412 263.729,30.733 C263.11,32.056 262.23,33.178 261.087,34.101 C259.944,35.023 258.547,35.723 256.894,36.199 C255.242,36.676 253.386,36.914 251.326,36.914" id="Fill-11" fill="#FFFFFF" sketch:type="MSShapeGroup"></path>
            <path d="M282.882,12.703 L282.882,14.317" id="Fill-12" fill="#FFFFFF" sketch:type="MSShapeGroup"></path>
            <path d="M283.732,7.413 L283.958,7.413 L283.958,6.933 L283.96,6.931 L283.96,6.965 M283.96,5.35 L283.96,5.799 L265.421,5.799 L265.421,14.481 L274.966,14.481 L274.966,20.774 L275.169,20.774 L274.966,20.774 L274.966,22.388 L275.169,22.388 L274.966,22.388 L274.966,28.844 L275.169,28.844 L275.169,28.845 L274.966,28.845 L274.966,30.458 L275.169,30.458 L275.169,30.459 L274.966,30.459 L274.966,36.914 L280.73,36.914 L280.73,36.198 L282.345,36.198 L282.345,36.914 L283.958,36.914 L283.958,35.301 L282.345,35.301 L282.345,34.583 L280.73,34.583 L280.73,33.687 L279.116,33.687 L279.116,32.073 L280.73,32.073 L280.73,30.459 L279.083,30.459 L279.083,30.458 L282.345,30.458 L282.345,28.845 L279.142,28.845 L279.142,28.844 L282.345,28.844 L282.345,27.23 L282.793,27.23 L282.793,25.616 L282.345,25.616 L282.345,24.002 L280.73,24.002 L280.73,22.388 L279.378,22.388 L282.345,22.388 L282.345,20.774 L279.438,20.774 L280.73,20.774 L280.73,19.159 L281.178,19.159 L281.178,20.774 L282.793,20.774 L282.793,19.159 L282.345,19.159 L282.345,17.546 L283.958,17.546 L283.958,14.318 L280.466,14.318 L280.466,14.317 L282.345,14.317 L282.345,12.703 L281.229,12.703 L281.993,11.089 L282.345,11.089 L282.345,12.703 L283.958,12.703 L283.958,7.861 M280.73,25.616 L281.178,25.616 L281.178,27.23 L279.202,27.23 L279.26,25.616 L280.73,25.616" id="Fill-13" fill="#FFFFFF" sketch:type="MSShapeGroup"></path>
            <path d="M118.313,36.514 L107.751,36.514 L106.643,32.916 L95.573,32.916 L98.064,24.798 L104.152,24.798 L101.108,14.881 L104.165,5.747 L106.966,5.747 L118.313,36.514" id="Fill-14" fill="#FFFFFF" sketch:type="MSShapeGroup"></path>
            <path d="M284.285,33.462 L285.9,33.462 L285.9,35.077 L284.285,35.077 L284.285,33.462 Z" id="Fill-15" fill="#FFFFFF" sketch:type="MSShapeGroup"></path>
            <path d="M284.285,31.04 L285.9,31.04 L285.9,32.655 L284.285,32.655 L284.285,31.04 Z" id="Fill-16" fill="#FFFFFF" sketch:type="MSShapeGroup"></path>
            <path d="M285.752,28.727 L287.367,28.727 L287.367,30.342 L285.752,30.342 L285.752,28.727 Z" id="Fill-17" fill="#FFFFFF" sketch:type="MSShapeGroup"></path>
            <path d="M289.111,27.004 L290.725,27.004 L290.725,28.619 L289.111,28.619 L289.111,27.004 Z" id="Fill-18" fill="#FFFFFF" sketch:type="MSShapeGroup"></path>
            <path d="M289.278,23.524 L290.893,23.524 L290.893,25.139 L289.278,25.139 L289.278,23.524 Z" id="Fill-19" fill="#FFFFFF" sketch:type="MSShapeGroup"></path>
            <path d="M285.093,25.96 L286.708,25.96 L286.708,27.575 L285.093,27.575 L285.093,25.96 Z" id="Fill-20" fill="#FFFFFF" sketch:type="MSShapeGroup"></path>
            <path d="M279.065,25.391 L281.4,25.391 L281.4,35.02 L279.065,35.02 L279.065,25.391 Z" id="Fill-21" fill="#FFFFFF" sketch:type="MSShapeGroup"></path>
            <path d="M286.379,22.163 L287.994,22.163 L287.994,23.778 L286.379,23.778 L286.379,22.163 Z" id="Fill-22" fill="#FFFFFF" sketch:type="MSShapeGroup"></path>
            <path d="M280.595,21.851 L282.21,21.851 L282.21,24.25 L280.595,24.25 L280.595,21.851 Z" id="Fill-23" fill="#FFFFFF" sketch:type="MSShapeGroup"></path>
            <path d="M289.352,16.39 L290.966,16.39 L290.966,18.005 L289.352,18.005 L289.352,16.39 Z" id="Fill-24" fill="#FFFFFF" sketch:type="MSShapeGroup"></path>
            <path d="M285.419,14.2 L287.033,14.2 L287.033,15.815 L285.419,15.815 L285.419,14.2 Z" id="Fill-25" fill="#FFFFFF" sketch:type="MSShapeGroup"></path>
            <path d="M285.093,11.671 L286.708,11.671 L286.708,13.286 L285.093,13.286 L285.093,11.671 Z" id="Fill-26" fill="#FFFFFF" sketch:type="MSShapeGroup"></path>
            <path d="M284.612,9.724 L286.226,9.724 L286.226,11.339 L284.612,11.339 L284.612,9.724 Z" id="Fill-27" fill="#FFFFFF" sketch:type="MSShapeGroup"></path>
            <path d="M281.178,10.975 L282.793,10.975 L282.793,14.78 L281.178,14.78 L281.178,10.975 Z" id="Fill-28" fill="#FFFFFF" sketch:type="MSShapeGroup"></path>
            <path d="M286.56,7.994 L288.175,7.994 L288.175,9.609 L286.56,9.609 L286.56,7.994 Z" id="Fill-29" fill="#FFFFFF" sketch:type="MSShapeGroup"></path>
            <path d="M287.819,10.057 L289.434,10.057 L289.434,11.672 L287.819,11.672 L287.819,10.057 Z" id="Fill-30" fill="#FFFFFF" sketch:type="MSShapeGroup"></path>
            <path d="M288.544,8.449 L290.158,8.449 L290.158,10.064 L288.544,10.064 L288.544,8.449 Z" id="Fill-31" fill="#FFFFFF" sketch:type="MSShapeGroup"></path>
            <path d="M290.646,4.676 L292.261,4.676 L292.261,6.291 L290.646,6.291 L290.646,4.676 Z" id="Fill-32" fill="#FFFFFF" sketch:type="MSShapeGroup"></path>
            <path d="M289.111,6.829 L290.725,6.829 L290.725,8.444 L289.111,8.444 L289.111,6.829 Z" id="Fill-33" fill="#FFFFFF" sketch:type="MSShapeGroup"></path>
            <path d="M290.646,9.593 L292.261,9.593 L292.261,11.208 L290.646,11.208 L290.646,9.593 Z" id="Fill-34" fill="#FFFFFF" sketch:type="MSShapeGroup"></path>
            <path d="M292.95,6.829 L294.564,6.829 L294.564,8.444 L292.95,8.444 L292.95,6.829 Z" id="Fill-35" fill="#FFFFFF" sketch:type="MSShapeGroup"></path>
            <path d="M292.95,9.439 L294.564,9.439 L294.564,11.054 L292.95,11.054 L292.95,9.439 Z" id="Fill-36" fill="#FFFFFF" sketch:type="MSShapeGroup"></path>
            <path d="M297.403,6.829 L299.018,6.829 L299.018,8.444 L297.403,8.444 L297.403,6.829 Z" id="Fill-37" fill="#FFFFFF" sketch:type="MSShapeGroup"></path>
            <path d="M297.403,6.982 L299.018,6.982 L299.018,8.597 L297.403,8.597 L297.403,6.982 Z" id="Fill-38" fill="#FFFFFF" sketch:type="MSShapeGroup"></path>
            <path d="M301.242,5.908 L302.856,5.908 L302.856,7.523 L301.242,7.523 L301.242,5.908 Z" id="Fill-39" fill="#FFFFFF" sketch:type="MSShapeGroup"></path>
            <path d="M299.706,10.975 L301.321,10.975 L301.321,12.59 L299.706,12.59 L299.706,10.975 Z" id="Fill-40" fill="#FFFFFF" sketch:type="MSShapeGroup"></path>
            <path d="M299.553,10.975 L301.167,10.975 L301.167,12.59 L299.553,12.59 L299.553,10.975 Z" id="Fill-41" fill="#FFFFFF" sketch:type="MSShapeGroup"></path>
            <path d="M295.253,11.743 L296.867,11.743 L296.867,13.358 L295.253,13.358 L295.253,11.743 Z" id="Fill-42" fill="#FFFFFF" sketch:type="MSShapeGroup"></path>
            <path d="M292.423,13.318 L294.038,13.318 L294.038,14.933 L292.423,14.933 L292.423,13.318 Z" id="Fill-43" fill="#FFFFFF" sketch:type="MSShapeGroup"></path>
            <path d="M296.455,2.793 L298.07,2.793 L298.07,4.408 L296.455,4.408 L296.455,2.793 Z" id="Fill-44" fill="#FFFFFF" sketch:type="MSShapeGroup"></path>
            <path d="M293.231,2.793 L294.846,2.793 L294.846,4.408 L293.231,4.408 L293.231,2.793 Z" id="Fill-45" fill="#FFFFFF" sketch:type="MSShapeGroup"></path>
            <path d="M288.47,2.947 L290.085,2.947 L290.085,4.562 L288.47,4.562 L288.47,2.947 Z" id="Fill-46" fill="#FFFFFF" sketch:type="MSShapeGroup"></path>
            <path d="M288.624,2.947 L290.238,2.947 L290.238,4.562 L288.624,4.562 L288.624,2.947 Z" id="Fill-47" fill="#FFFFFF" sketch:type="MSShapeGroup"></path>
            <path d="M302.598,1.258 L304.213,1.258 L304.213,2.873 L302.598,2.873 L302.598,1.258 Z" id="Fill-48" fill="#FFFFFF" sketch:type="MSShapeGroup"></path>
            <path d="M309.355,-0.278 L310.97,-0.278 L310.97,1.337 L309.355,1.337 L309.355,-0.278 Z" id="Fill-49" fill="#FFFFFF" sketch:type="MSShapeGroup"></path>
            <path d="M305.363,7.554 L306.977,7.554 L306.977,9.169 L305.363,9.169 L305.363,7.554 Z" id="Fill-50" fill="#FFFFFF" sketch:type="MSShapeGroup"></path>
            <path d="M309.662,6.018 L311.276,6.018 L311.276,7.633 L309.662,7.633 L309.662,6.018 Z" id="Fill-51" fill="#FFFFFF" sketch:type="MSShapeGroup"></path>
            <path d="M305.824,3.868 L307.438,3.868 L307.438,5.483 L305.824,5.483 L305.824,3.868 Z" id="Fill-52" fill="#FFFFFF" sketch:type="MSShapeGroup"></path>
            <path d="M291.864,18.571 L293.478,18.571 L293.478,20.186 L291.864,20.186 L291.864,18.571 Z" id="Fill-53" fill="#FFFFFF" sketch:type="MSShapeGroup"></path>
            <path d="M289.111,20.185 L290.725,20.185 L290.725,21.8 L289.111,21.8 L289.111,20.185 Z" id="Fill-54" fill="#FFFFFF" sketch:type="MSShapeGroup"></path>
            <path d="M285.86,17.689 L287.475,17.689 L287.475,19.304 L285.86,19.304 L285.86,17.689 Z" id="Fill-55" fill="#FFFFFF" sketch:type="MSShapeGroup"></path>
            <path d="M282.942,19.378 L284.557,19.378 L284.557,20.993 L282.942,20.993 L282.942,19.378 Z" id="Fill-56" fill="#FFFFFF" sketch:type="MSShapeGroup"></path>
            <path d="M279.788,9.614 L282.156,9.614 L282.156,20.993 L279.788,20.993 L279.788,9.614 Z" id="Fill-57" fill="#FFFFFF" sketch:type="MSShapeGroup"></path>
            <path d="M283.479,21.356 L285.093,21.356 L285.093,22.971 L283.479,22.971 L283.479,21.356 Z" id="Fill-58" fill="#FFFFFF" sketch:type="MSShapeGroup"></path>
            <path d="M282.942,23.524 L284.557,23.524 L284.557,25.139 L282.942,25.139 L282.942,23.524 Z" id="Fill-59" fill="#FFFFFF" sketch:type="MSShapeGroup"></path>
            <path d="M295.253,15.582 L296.867,15.582 L296.867,17.197 L295.253,17.197 L295.253,15.582 Z" id="Fill-60" fill="#FFFFFF" sketch:type="MSShapeGroup"></path>
            <path d="M302.01,14.814 L303.624,14.814 L303.624,16.429 L302.01,16.429 L302.01,14.814 Z" id="Fill-61" fill="#FFFFFF" sketch:type="MSShapeGroup"></path>
            <path d="M303.406,10.975 L305.021,10.975 L305.021,12.59 L303.406,12.59 L303.406,10.975 Z" id="Fill-62" fill="#FFFFFF" sketch:type="MSShapeGroup"></path>
            <path d="M289.417,12.972 L291.032,12.972 L291.032,14.587 L289.417,14.587 L289.417,12.972 Z" id="Fill-63" fill="#FFFFFF" sketch:type="MSShapeGroup"></path>
            <path d="M287.421,12.511 L289.035,12.511 L289.035,14.126 L287.421,14.126 L287.421,12.511 Z" id="Fill-64" fill="#FFFFFF" sketch:type="MSShapeGroup"></path>
            <path d="M290.339,11.282 L291.953,11.282 L291.953,12.897 L290.339,12.897 L290.339,11.282 Z" id="Fill-65" fill="#FFFFFF" sketch:type="MSShapeGroup"></path>
            <path d="M286.021,5.687 L287.636,5.687 L287.636,7.302 L286.021,7.302 L286.021,5.687 Z" id="Fill-66" fill="#FFFFFF" sketch:type="MSShapeGroup"></path>
            <path d="M284.285,7.187 L285.9,7.187 L285.9,8.802 L284.285,8.802 L284.285,7.187 Z" id="Fill-67" fill="#FFFFFF" sketch:type="MSShapeGroup"></path>
            <path d="M283.152,27.812 L284.767,27.812 L284.767,29.427 L283.152,29.427 L283.152,27.812 Z" id="Fill-68" fill="#FFFFFF" sketch:type="MSShapeGroup"></path>
            <path d="M281.403,31.446 L283.018,31.446 L283.018,33.061 L281.403,33.061 L281.403,31.446 Z" id="Fill-69" fill="#FFFFFF" sketch:type="MSShapeGroup"></path>
        </g>
    </g>
</svg>