<?xml version="1.0" encoding="UTF-8"?>
<svg width="85px" height="85px" viewBox="0 0 85 85" version="1.1" xmlns="http://www.w3.org/2000/svg" xmlns:xlink="http://www.w3.org/1999/xlink" xmlns:sketch="http://www.bohemiancoding.com/sketch/ns">
    <title>formation</title>
    <description>Created with Sketch (http://www.bohemiancoding.com/sketch)</description>
    <defs></defs>
    <g id="Page-1" stroke="none" stroke-width="1" fill="none" fill-rule="evenodd" sketch:type="MSPage">
        <g id="formation" sketch:type="MSLayerGroup" fill="#FFFFFF">
            <path d="M77.03125,45.15625 L79.6875,45.15625 L79.6875,78.359375 L77.03125,78.359375 L77.03125,45.15625 Z" id="Fill-1" sketch:type="MSShapeGroup"></path>
            <path d="M78.359375,79.6875 C78.019375,79.6875 77.679375,79.5573438 77.4203906,79.2983594 L72.1078906,73.9858594 C71.5885938,73.4665625 71.5885938,72.6271875 72.1078906,72.1078906 C72.6271875,71.5885938 73.4665625,71.5885938 73.9858594,72.1078906 L78.359375,76.4814063 L82.7328906,72.1078906 C83.2521875,71.5885938 84.0915625,71.5885938 84.6108594,72.1078906 C85.1301562,72.6271875 85.1301562,73.4665625 84.6108594,73.9858594 L79.2983594,79.2983594 C79.039375,79.5573438 78.699375,79.6875 78.359375,79.6875" id="Fill-2" sketch:type="MSShapeGroup"></path>
            <path d="M5.3125,6.640625 L7.96875,6.640625 L7.96875,39.84375 L5.3125,39.84375 L5.3125,6.640625 Z" id="Fill-3" sketch:type="MSShapeGroup"></path>
            <path d="M11.953125,13.28125 C11.613125,13.28125 11.273125,13.1510938 11.0141406,12.8921094 L6.640625,8.51859375 L2.26710938,12.8921094 C1.7478125,13.4114063 0.9084375,13.4114063 0.389140625,12.8921094 C-0.13015625,12.3728125 -0.13015625,11.5334375 0.389140625,11.0141406 L5.70164063,5.70164063 C6.2209375,5.18234375 7.0603125,5.18234375 7.57960938,5.70164063 L12.8921094,11.0141406 C13.4114063,11.5334375 13.4114063,12.3728125 12.8921094,12.8921094 C12.633125,13.1510938 12.293125,13.28125 11.953125,13.28125" id="Fill-4" sketch:type="MSShapeGroup"></path>
            <path d="M45.15625,5.3125 L78.359375,5.3125 L78.359375,7.96875 L45.15625,7.96875 L45.15625,5.3125 Z" id="Fill-5" sketch:type="MSShapeGroup"></path>
            <path d="M78.359375,7.96875 C78.019375,7.96875 77.679375,7.83859375 77.4203906,7.57960938 L72.1078906,2.26710938 C71.5885938,1.7478125 71.5885938,0.9084375 72.1078906,0.389140625 C72.6271875,-0.13015625 73.4665625,-0.13015625 73.9858594,0.389140625 L79.2983594,5.70164062 C79.8176562,6.2209375 79.8176562,7.0603125 79.2983594,7.57960938 C79.039375,7.83859375 78.699375,7.96875 78.359375,7.96875" id="Fill-6" sketch:type="MSShapeGroup"></path>
            <path d="M73.046875,13.28125 C72.706875,13.28125 72.366875,13.1510938 72.1078906,12.8921094 C71.5885938,12.3728125 71.5885938,11.5334375 72.1078906,11.0141406 L77.4203906,5.70164063 C77.9396875,5.18234375 78.7790625,5.18234375 79.2983594,5.70164063 C79.8176562,6.2209375 79.8176562,7.0603125 79.2983594,7.57960938 L73.9858594,12.8921094 C73.726875,13.1510938 73.386875,13.28125 73.046875,13.28125" id="Fill-7" sketch:type="MSShapeGroup"></path>
            <path d="M6.640625,77.03125 L39.84375,77.03125 L39.84375,79.6875 L6.640625,79.6875 L6.640625,77.03125 Z" id="Fill-8" sketch:type="MSShapeGroup"></path>
            <path d="M6.640625,79.6875 C6.300625,79.6875 5.960625,79.5573438 5.70164063,79.2983594 C5.18234375,78.7790625 5.18234375,77.9396875 5.70164063,77.4203906 L11.0141406,72.1078906 C11.5334375,71.5885938 12.3728125,71.5885938 12.8921094,72.1078906 C13.4114063,72.6271875 13.4114063,73.4665625 12.8921094,73.9858594 L7.57960938,79.2983594 C7.320625,79.5573438 6.980625,79.6875 6.640625,79.6875" id="Fill-9" sketch:type="MSShapeGroup"></path>
            <path d="M11.953125,85 C11.613125,85 11.273125,84.8698438 11.0141406,84.6108594 L5.70164063,79.2983594 C5.18234375,78.7790625 5.18234375,77.9396875 5.70164063,77.4203906 C6.2209375,76.9010938 7.0603125,76.9010938 7.57960938,77.4203906 L12.8921094,82.7328906 C13.4114063,83.2521875 13.4114063,84.0915625 12.8921094,84.6108594 C12.633125,84.8698438 12.293125,85 11.953125,85" id="Fill-10" sketch:type="MSShapeGroup"></path>
            <path d="M42.5,46.484375 C37.9564844,46.484375 34.53125,42.2025 34.53125,36.5234375 C34.53125,32.5045312 35.4370313,27.890625 42.5,27.890625 C49.5629687,27.890625 50.46875,32.5045312 50.46875,36.5234375 C50.46875,42.2025 47.0435156,46.484375 42.5,46.484375 M42.5,30.546875 C38.4784375,30.546875 37.1875,31.9985156 37.1875,36.5234375 C37.1875,40.0655469 39.0495313,43.828125 42.5,43.828125 C45.9504687,43.828125 47.8125,40.0655469 47.8125,36.5234375 C47.8125,31.9985156 46.5215625,30.546875 42.5,30.546875" id="Fill-11" sketch:type="MSShapeGroup"></path>
            <path d="M53.125,57.109375 L31.875,57.109375 C29.7154687,57.109375 27.890625,54.6775781 27.890625,51.796875 L27.890625,48.3703125 L37.856875,42.6753125 L39.174375,44.9809375 L30.546875,49.9109375 L30.546875,51.796875 C30.546875,53.4225 31.4805469,54.453125 31.875,54.453125 L53.125,54.453125 C53.5194531,54.453125 54.453125,53.4225 54.453125,51.796875 L54.453125,49.9109375 L45.825625,44.9809375 L47.143125,42.6753125 L57.109375,48.3703125 L57.109375,51.796875 C57.109375,54.6775781 55.2845313,57.109375 53.125,57.109375" id="Fill-12" sketch:type="MSShapeGroup"></path>
            <path d="M42.5,74.375 C24.9249219,74.375 10.625,60.0750781 10.625,42.5 C10.625,24.9249219 24.9249219,10.625 42.5,10.625 C60.0750781,10.625 74.375,24.9249219 74.375,42.5 C74.375,60.0750781 60.0750781,74.375 42.5,74.375 M42.5,13.28125 C26.3885156,13.28125 13.28125,26.3885156 13.28125,42.5 C13.28125,58.6114844 26.3885156,71.71875 42.5,71.71875 C58.6114844,71.71875 71.71875,58.6114844 71.71875,42.5 C71.71875,26.3885156 58.6114844,13.28125 42.5,13.28125" id="Fill-13" sketch:type="MSShapeGroup"></path>
            <path d="M39.748125,79.6848437 C21.5607813,78.3713281 6.80132813,63.6078906 5.42007813,45.3435156 L8.0696875,45.1442969 C9.35132813,62.1057812 23.0535938,75.8160156 39.9407031,77.0352344 L39.748125,79.6848437" id="Fill-14" sketch:type="MSShapeGroup"></path>
            <path d="M45.3820313,79.5785937 L45.1801563,76.9303125 C62.0300781,75.6367187 75.681875,61.9517187 76.935625,45.1004687 L79.5839063,45.2957031 C78.2345313,63.4485156 63.5321875,78.1867187 45.3820313,79.5785937" id="Fill-15" sketch:type="MSShapeGroup"></path>
            <path d="M76.9422656,39.981875 C75.7203906,23.0296875 62.0194531,9.3075 45.0685937,8.06304688 L45.2638281,5.4134375 C63.5189062,6.75484375 78.2770312,21.5328906 79.5905469,39.790625 L76.9422656,39.981875" id="Fill-16" sketch:type="MSShapeGroup"></path>
            <path d="M8.0696875,39.8185156 L5.42140625,39.6153125 C6.81726562,21.451875 21.56875,6.74820313 39.7361719,5.4134375 L39.9300781,8.06171875 C23.0628906,9.3021875 9.3659375,22.9539844 8.0696875,39.8185156" id="Fill-17" sketch:type="MSShapeGroup"></path>
        </g>
    </g>
</svg>