<?xml version="1.0" encoding="UTF-8"?>
<svg width="88px" height="88px" viewBox="0 0 88 88" version="1.1" xmlns="http://www.w3.org/2000/svg" xmlns:xlink="http://www.w3.org/1999/xlink" xmlns:sketch="http://www.bohemiancoding.com/sketch/ns">
    <title>Imported Layers</title>
    <description>Created with Sketch (http://www.bohemiancoding.com/sketch)</description>
    <defs></defs>
    <g id="Page-1" stroke="none" stroke-width="1" fill="none" fill-rule="evenodd" sketch:type="MSPage">
        <path d="M85.735661,10.7947607 L76.8432034,10.7947607 L76.8432034,1.90532001 C76.8432034,1.13599797 76.3801017,0.440591193 75.6681017,0.144930176 C74.9545932,-0.149222367 74.137,0.012184413 73.5909322,0.55825221 L65.3652203,8.78396407 C58.5755763,4.51498102 50.7692203,2.2673539 42.6868136,2.2673539 C19.1500847,2.26584543 0,21.4159302 0,44.9541675 C0,68.4924048 19.1500847,87.6424895 42.688322,87.6424895 C66.2265593,87.6424895 85.3766441,68.4924048 85.3766441,44.9541675 C85.3766441,36.8717607 83.126,29.0638963 78.8570169,22.2712353 L87.0842373,14.0470319 C87.6287966,13.5009641 87.7917119,12.6803539 87.4975593,11.9698624 C87.2018983,11.2578624 86.5064915,10.7947607 85.735661,10.7947607 L85.735661,10.7947607 Z M81.5647288,44.9541675 C81.5647288,66.3910997 64.1237458,83.8320827 42.688322,83.8320827 C21.2513898,83.8320827 3.81040678,66.3910997 3.81040678,44.9541675 C3.81040678,23.5172353 21.2513898,6.07776068 42.688322,6.07776068 C49.7540169,6.07776068 56.5874068,7.96787933 62.5911356,11.5565403 L57.0746441,17.0730319 C56.7186441,17.4305403 56.5165085,17.9147607 56.5165085,18.4200997 L56.5165085,22.5186251 C52.3817797,19.9708115 47.5968983,18.576981 42.6898305,18.576981 L42.688322,18.576981 C28.1436102,18.576981 16.3111356,30.4094556 16.3111356,44.9541675 C16.3111356,59.4973709 28.1436102,71.3298454 42.688322,71.3298454 C57.2300169,71.3298454 69.0609831,59.4973709 69.0609831,44.9541675 C69.0609831,40.0440827 67.6656441,35.2561844 65.116322,31.1184387 L69.2178644,31.1184387 C69.7232034,31.1184387 70.2074237,30.9178115 70.5649322,30.5618115 L76.0814237,25.04532 C79.6715932,31.0535742 81.5647288,37.8869641 81.5647288,44.9541675 L81.5647288,44.9541675 Z M56.5165085,28.4288285 L48.3224746,36.6243709 C46.7144407,35.5322353 44.7730339,34.892642 42.6868136,34.892642 C37.1386441,34.892642 32.6237797,39.405998 32.6237797,44.9541675 C32.6237797,50.502337 37.1386441,55.0156929 42.6868136,55.0156929 C48.2349831,55.0156929 52.748339,50.502337 52.748339,44.9541675 C52.748339,42.8664387 52.1087458,40.9265403 51.0166102,39.316998 L59.213661,31.1199471 L60.4853051,31.1199471 C63.5520339,35.0646081 65.2490678,39.936981 65.2490678,44.9556759 C65.2490678,57.3990827 55.1287119,67.5209471 42.6868136,67.5209471 C30.2434068,67.5209471 20.1215424,57.3990827 20.1215424,44.9556759 C20.1215424,32.5122692 30.2449153,22.3873878 42.688322,22.3873878 L42.6898305,22.3873878 C47.7055085,22.3873878 52.5733559,24.0844217 56.5165085,27.1481336 L56.5165085,28.4288285 L56.5165085,28.4288285 Z M48.9379322,44.9541675 C48.9379322,48.4025403 46.133678,51.2067946 42.6868136,51.2067946 C39.2399492,51.2067946 36.4341864,48.4025403 36.4341864,44.9541675 C36.4341864,41.5073031 39.2399492,38.7015403 42.6868136,38.7015403 C43.7171017,38.7015403 44.6870508,38.957981 45.5453729,39.3999641 L41.3382373,43.6086081 C40.5945593,44.3522861 40.5945593,45.5575573 41.3382373,46.3027437 C41.7108305,46.6738285 42.1980678,46.8608793 42.6853051,46.8608793 C43.1725424,46.8608793 43.6597797,46.6738285 44.0323729,46.3027437 L48.238,42.0956081 C48.683,42.9524217 48.9379322,43.9238793 48.9379322,44.9541675 L48.9379322,44.9541675 Z M75.0752712,20.6632014 C75.058678,20.6797946 75.0420847,20.6948793 75.0254915,20.712981 L68.4274237,27.3095403 L60.3269153,27.3095403 L60.3269153,19.2105403 L66.9114068,12.6245403 C66.9370508,12.6019132 66.9626949,12.5762692 66.988339,12.5506251 L73.0327966,6.50616746 L73.0327966,12.6984556 C73.0327966,13.7498624 73.8865932,14.603659 74.938,14.603659 L81.136322,14.603659 L75.0752712,20.6632014 L75.0752712,20.6632014 Z" id="target" fill="#000000" sketch:type="MSShapeGroup"></path>
    </g>
</svg>