<svg height='100px' width='100px'  fill="#000000" xmlns="http://www.w3.org/2000/svg" xmlns:xlink="http://www.w3.org/1999/xlink" version="1.1" x="0px" y="0px" viewBox="0 0 128 128" style="enable-background:new 0 0 128 128;" xml:space="preserve"><g><path d="M15.4763184,65.4170532c1.1235352,0.9552612,2.550293,1.4797974,4.0249023,1.4797974   c1.4382324,0,2.8317871-0.4987793,3.9432373-1.411377l2.2486572-1.8463135C27.1496582,67.3603516,30.7626953,70,35,70   c5.5228271,0,10-4.4771729,10-10s-4.4771729-10-10-10c-0.0756836,0-0.1490479,0.0097046-0.2243652,0.0113525   c-0.4067383-1.8237915-1.7131348-5.1148682-5.8796387-5.1148682c-5.7581787,0-8.5285645,4.8889771-9.0174561,8.0396118   c-0.4440918,2.8619385-1.7398682,6.6651001-5.3425293,7.3381958c-0.7248535,0.135376-1.3414307,0.6084595-1.5880127,1.3034668   c-0.2773438,0.7814941-0.0429688,1.6530762,0.5887451,2.1902466L15.4763184,65.4170532z M43,60c0,4.4111938-3.5887451,8-8,8   c-0.567627,0-1.1208496-0.0615234-1.6553955-0.1744995c0.2418213-6.536377,2.5045166-7.6680908,2.5045166-7.6680908   c3.3780518-2.1679688,4.9233398-3.7739258,5.6263428-4.8362427C42.4301758,56.6386719,43,58.2522583,43,60z"></path><path d="M69.1953125,68.7756958c-1.2664795-1.0831299-3.1314697-1.0881348-4.4038086-0.0118408l-5.1149902,4.3272095   c-2.4667969,2.0869141-5.7897949,2.8532715-8.9213867,2.0575562l-10.0688477-2.5585938l0.0026855,0.020874   c-0.4797363-0.12323-0.973877-0.2067871-1.4865723-0.2067871h-8.0390625c-3.6739502,0-7.052002,2.0147095-8.7983398,5.2471924   L6.2854004,107.4180298c-0.9624023,1.7816162-0.4599609,4.0003052,1.1760254,5.1934814   c1.8614502,1.357605,4.479126,0.8896484,5.7548828-1.0288696l9.9807129-15.008728   c0.223877-0.336853,0.6367188-0.4949341,1.0284424-0.3939209c0.4146729,0.1069336,0.7070312,0.4709473,0.7130127,0.8991699   c0.0539551,3.8206787-0.0622559,12.8540649-2.0810547,19.326416C22.4550781,117.6953735,23.4498291,119,24.8009033,119   l19.7403564-0.000061c1.1044922,0,2-0.8954468,2-2v-3.3210449c0-2.3429565,0.2469482-4.6793823,0.7368164-6.9705811   l1.1884766-5.5574341c0.9831543-4.5974731,0.8188477-9.366333-0.4782715-13.8852539l-0.4511719-1.5717773l5.3267822,0.5750732   c3.2574463,0.3516235,6.4803467-0.9146729,8.6273193-3.3895874l8.0622559-9.2943115   C70.7893066,72.1602783,70.6286621,70.0016479,69.1953125,68.7756958z"></path><path d="M117.9931641,9H64.0068359C62.3486328,9,61,10.3486328,61,12.0063477v35.9873047   C61,49.6513672,62.3486328,51,64.0068359,51h53.9863281C119.6513672,51,121,49.6513672,121,47.9936523V12.0063477   C121,10.3486328,119.6513672,9,117.9931641,9z M119,47.9936523C119,48.5483398,118.5488281,49,117.9931641,49h-9.6170654   c-0.1297607-3.9990845-2.3944092-7.5740356-5.8511963-9.1326904l-2.472168-1.114624   c-2.3352051-1.0529175-4.8427734-1.5952759-7.3757324-1.5952759c-3.5708008,0-7.0698242,1.0775146-10.097168,3.1094971   L69.5690918,49h-5.5622559C63.4511719,49,63,48.5483398,63,47.9936523V12.0063477C63,11.4516602,63.4511719,11,64.0068359,11   h53.9863281C118.5488281,11,119,11.4516602,119,12.0063477V47.9936523z"></path><path d="M101.9105225,26.2705078C101.963501,25.8535156,102,25.4313965,102,25c0-5.5228882-4.4771729-10-10-10   c-3.4555664,0-6.5014648,1.7530518-8.2978516,4.4180908c-1.7775879,2.4313965-3.7739258,3.6842651-5.032959,4.2840576   c-0.7687988,0.3661499-1.2644043,1.1297607-1.2644043,1.9813232c0,1.2886963,1.1136475,2.2911987,2.397583,2.1801758   c0.9102783-0.0787354,1.744751-0.2068481,2.524292-0.367981C83.4368896,31.8085938,87.3405762,35,92,35   c2.0026855,0,3.8635254-0.5947876,5.4276123-1.6085205c0.2246094,1.2109985,1.2821045,2.1294556,2.5582275,2.1294556   c1.4394531,0,2.6063232-1.1669312,2.6063232-2.6063232c0-0.5569458-0.1778564-1.0704956-0.4754639-1.4940186   c1.2418213-0.1990356,2.1933594-1.2666626,2.1933594-2.5646362   C104.3100586,27.4873657,103.2515869,26.3776855,101.9105225,26.2705078z M84.2587891,26.9822998   c5.4133301-1.7938232,7.043457-5.6229858,7.5305176-7.8239136c1.1560059,1.5185547,3.1801758,3.2970581,6.458252,3.8215942   c-0.5078125,1.2374268-1.4360352,4.2559204,0.8730469,5.6453247c-0.0001221,0.0013428-0.0002441,0.0027466-0.0004883,0.0041504   C97.7944336,31.2194214,95.1040039,33,92,33C88.2740479,33,85.144165,30.4359741,84.2587891,26.9822998z"></path><path d="M88.5,82C78.2827148,82,70,90.2827148,70,100.5S78.2827148,119,88.5,119s18.5-8.2827148,18.5-18.5S98.7172852,82,88.5,82z    M94.6523438,115.7980957c-0.671875-0.6409912-2.1149902-1.4332886-5.1730957-1.4332886   c-3.5939941,0-5.4655762,1.0942383-6.2666016,1.7505493c-0.8391113-0.2850342-1.651123-0.6281738-2.4238281-1.0386353v-1.7414551   c0-0.4751587-0.1239014-0.9420776-0.3596191-1.3546143l-1.9359131-3.3878174   c-0.2357178-0.4125366-0.3597412-0.8794556-0.3597412-1.3546143v-1.4329224c0-0.7420044-0.302002-1.4520264-0.8364258-1.9666748   c-0.5087891-0.4899292-1.1876221-0.7636108-1.8939209-0.7636108h-3.1815186   c-0.0157471-0.0993042-0.0317383-0.1984253-0.0456543-0.2982788l1.9355469-1.8110352   c1.0024414-0.9380493,1.6604004-2.1859741,1.8679199-3.5432129c0.2921143-1.911438,1.4707031-3.5722656,3.1784668-4.479126   l1.4213867-0.7548218c0.7602539-0.4037476,1.2354736-1.1942749,1.2354736-2.0551147   c0-1.2850952-1.041748-2.3268433-2.3267822-2.3268433h-1.5150146c1.5906982-1.3214722,3.4346924-2.3443604,5.4445801-2.9970703   c0.7263184,0.6140137,2.177124,1.307251,5.0357666,1.307251c2.68396,0,4.402832-0.6109619,5.4382324-1.1938477   c1.8881836,0.6557007,3.6276855,1.6311646,5.135376,2.883667H95.84021c-0.3817139,0-0.7276611,0.2247925-0.8826904,0.5736694   c-0.2446289,0.5501099-0.927124,0.7450562-1.425293,0.4070435l-0.3618164-0.2455444   c-0.2358398-0.1600342-0.5302734-0.2077637-0.8046875-0.1303711l-4.0715332,1.1481323   c-0.2658691,0.0749512-0.4869385,0.2601929-0.6072998,0.5088501l-0.8725586,1.8025513   c-0.0883789,0.1825562-0.2320557,0.3327026-0.4105225,0.4290771l-1.7886963,0.9660034   c-0.3123779,0.1686401-0.506958,0.4949951-0.506958,0.8499756v0.0268555c0,0.5335083,0.4324951,0.9660034,0.9660645,0.9660034   h2.9516602c0.3833008,0,0.6939697,0.31073,0.6939697,0.6940308s0.3106689,0.6940308,0.6939697,0.6940308h0.7595215   c0.3831787,0,0.6938477-0.31073,0.6938477-0.6940308v-0.8146973l2.7158203,1.508728l0.1206055,1.5690918l-0.8447266-0.8449097   h-3.791748c-2.0957031,0-4.1080322,0.8207397-5.605957,2.286438c-0.473877,0.4636841-0.7410889,1.0988159-0.7410889,1.7619019   c0,0.6537476,0.2596436,1.2807617,0.7220459,1.743042l0.1552734,0.1552734   c0.4621582,0.4622803,1.0892334,0.7219849,1.7429199,0.7219849h1.3007812c0.6821289,0,1.2351074,0.5529785,1.2351074,1.2351685   v0.6054688l-1.0755615,3.388855c-0.2452393,0.7728882-0.0393066,1.618042,0.5340576,2.1914062   c0.4071045,0.4070435,0.9592285,0.6357422,1.5349121,0.6357422c1.8861084,0,3.5876465-1.1329956,4.3150635-2.87323   l0.4674072-1.1181641c1.0300293-2.4643555,1.5603027-5.1087036,1.5603027-7.7796021h0.5733643   c0.416626,0,0.7542725-0.3377686,0.7542725-0.7543945v-0.6005859c0-0.416626,0.3378906-0.7543945,0.7543945-0.7543945   c0.416748,0,0.7543945-0.3377686,0.7543945-0.7543945v-1.9613037l4.7128906,4.7128296   c0.6105957,0.6106567,1.3752441,1.0215454,2.197998,1.2318726   C104.644043,107.8725586,100.4748535,113.4476929,94.6523438,115.7980957z"></path><path d="M36.2109375,35.894043c0.2558594,0,0.5117188-0.0976562,0.7070312-0.2929688L37.625,34.894043   c0.390625-0.390625,0.390625-1.0234375,0-1.4140625s-1.0234375-0.390625-1.4140625,0l-0.7070312,0.7070312   c-0.390625,0.390625-0.390625,1.0234375,0,1.4140625C35.6992188,35.7963867,35.9550781,35.894043,36.2109375,35.894043z"></path><path d="M29.1396484,42.9648438c0.2558594,0,0.5117188-0.0976562,0.7070312-0.2929688l0.7070312-0.7070312   c0.390625-0.390625,0.390625-1.0234375,0-1.4140625s-1.0234375-0.390625-1.4140625,0l-0.7070312,0.7070312   c-0.390625,0.390625-0.390625,1.0234375,0,1.4140625C28.6279297,42.8671875,28.8837891,42.9648438,29.1396484,42.9648438z"></path><path d="M32.6748047,39.4296875c0.2558594,0,0.5117188-0.0976562,0.7070312-0.2929688l0.7070312-0.7075195   c0.390625-0.390625,0.390625-1.0239258,0-1.4145508c-0.390625-0.3896484-1.0234375-0.3901367-1.4140625,0.0004883   l-0.7070312,0.7075195c-0.390625,0.390625-0.390625,1.0239258,0,1.4145508   C32.1630859,39.3320312,32.4189453,39.4296875,32.6748047,39.4296875z"></path><path d="M39.7460938,32.3583984c0.2558594,0,0.5117188-0.0976562,0.7070312-0.2929688l0.7070312-0.7070312   c0.390625-0.390625,0.390625-1.0234375,0-1.4140625s-1.0234375-0.390625-1.4140625,0l-0.7070312,0.7070312   c-0.390625,0.390625-0.390625,1.0234375,0,1.4140625C39.234375,32.2607422,39.4902344,32.3583984,39.7460938,32.3583984z"></path><path d="M57.4238281,14.6806641c0.2558594,0,0.5117188-0.0976562,0.7070312-0.2929688l0.7070312-0.7070312   c0.390625-0.390625,0.390625-1.0234375,0-1.4140625s-1.0234375-0.390625-1.4140625,0l-0.7070312,0.7070312   c-0.390625,0.390625-0.390625,1.0234375,0,1.4140625C56.9121094,14.5830078,57.1679688,14.6806641,57.4238281,14.6806641z"></path><path d="M53.8886719,18.2163086c0.2558594,0,0.5117188-0.0976562,0.7070312-0.2929688l0.7070312-0.7070312   c0.390625-0.390625,0.390625-1.0234375,0-1.4140625s-1.0234375-0.390625-1.4140625,0l-0.7070312,0.7070312   c-0.390625,0.390625-0.390625,1.0234375,0,1.4140625C53.3769531,18.1186523,53.6328125,18.2163086,53.8886719,18.2163086z"></path><path d="M46.8173828,25.2871094c0.2558594,0,0.5117188-0.0976562,0.7070312-0.2929688l0.7070312-0.7070312   c0.390625-0.390625,0.390625-1.0234375,0-1.4140625s-1.0234375-0.390625-1.4140625,0l-0.7070312,0.7070312   c-0.390625,0.390625-0.390625,1.0234375,0,1.4140625C46.3056641,25.1894531,46.5615234,25.2871094,46.8173828,25.2871094z"></path><path d="M50.3525391,21.7519531c0.2558594,0,0.5117188-0.0976562,0.7070312-0.2929688l0.7070312-0.7070312   c0.390625-0.390625,0.390625-1.0234375,0-1.4140625s-1.0234375-0.390625-1.4140625,0l-0.7070312,0.7070312   c-0.390625,0.390625-0.390625,1.0234375,0,1.4140625C49.8408203,21.6542969,50.0966797,21.7519531,50.3525391,21.7519531z"></path><path d="M43.28125,28.8227539c0.2558594,0,0.5117188-0.0976562,0.7070312-0.2929688l0.7070312-0.7070312   c0.390625-0.390625,0.390625-1.0234375,0-1.4140625s-1.0234375-0.390625-1.4140625,0l-0.7070312,0.7070312   c-0.390625,0.390625-0.390625,1.0234375,0,1.4140625C42.7695312,28.7250977,43.0253906,28.8227539,43.28125,28.8227539z"></path><path d="M95.2530823,75.9124451l0.7070312-0.7070312c0.390625-0.390625,0.390625-1.0234375,0-1.4140625   s-1.0234375-0.390625-1.4140625,0l-0.7070312,0.7070312c-0.390625,0.390625-0.390625,1.0234375,0,1.4140625   c0.1953125,0.1953125,0.4511719,0.2929688,0.7070312,0.2929688S95.0577698,76.1077576,95.2530823,75.9124451z"></path><path d="M115.7589417,52.5779686l-0.7070312,0.7070312c-0.390625,0.390625-0.390625,1.0234375,0,1.4140625   c0.1953125,0.1953125,0.4511719,0.2929688,0.7070312,0.2929688s0.5117188-0.0976562,0.7070312-0.2929688l0.7070312-0.7070312   c0.390625-0.390625,0.390625-1.0234375,0-1.4140625S116.1495667,52.1873436,115.7589417,52.5779686z"></path><path d="M102.3233948,68.841156l0.7070312-0.7070312c0.390625-0.390625,0.390625-1.0234375,0-1.4140625   s-1.0234375-0.390625-1.4140625,0l-0.7070312,0.7070312c-0.390625,0.390625-0.390625,1.0234375,0,1.4140625   c0.1953125,0.1953125,0.4511719,0.2929688,0.7070312,0.2929688S102.1280823,69.0364685,102.3233948,68.841156z"></path><path d="M91.7169495,79.4480896l0.7070312-0.7075195c0.390625-0.390625,0.390625-1.0239258,0-1.4145508   c-0.390625-0.3896484-1.0234375-0.3901367-1.4140625,0.0004883l-0.7070312,0.7075195   c-0.390625,0.390625-0.390625,1.0239258,0,1.4145508c0.1953125,0.1948242,0.4511719,0.2924805,0.7070312,0.2924805   S91.521637,79.6434021,91.7169495,79.4480896z"></path><path d="M98.7882385,72.3768005l0.7070312-0.7070312c0.390625-0.390625,0.390625-1.0234375,0-1.4140625   s-1.0234375-0.390625-1.4140625,0L97.374176,70.962738c-0.390625,0.390625-0.390625,1.0234375,0,1.4140625   c0.1953125,0.1953125,0.4511719,0.2929688,0.7070312,0.2929688S98.592926,72.572113,98.7882385,72.3768005z"></path><path d="M112.2237854,56.1136131l-0.7070312,0.7070312c-0.390625,0.390625-0.390625,1.0234375,0,1.4140625   c0.1953125,0.1953125,0.4511719,0.2929688,0.7070312,0.2929688s0.5117188-0.0976562,0.7070312-0.2929688l0.7070312-0.7070312   c0.390625-0.390625,0.390625-1.0234375,0-1.4140625S112.6144104,55.7229881,112.2237854,56.1136131z"></path><path d="M105.1524963,63.1844139l-0.7070312,0.7070312c-0.390625,0.3906288-0.390625,1.0234413,0,1.4140663   c0.1953125,0.1953125,0.4511719,0.2929688,0.7070312,0.2929688s0.5117188-0.0976562,0.7070312-0.2929688l0.7070312-0.7070312   c0.390625-0.390625,0.390625-1.0234413,0-1.4140663S105.5431213,62.7937889,105.1524963,63.1844139z"></path><path d="M108.6876526,59.6492577l-0.7070312,0.7070312c-0.390625,0.390625-0.390625,1.0234375,0,1.4140625   c0.1953125,0.1953125,0.4511719,0.2929688,0.7070312,0.2929688s0.5117188-0.0976562,0.7070312-0.2929688l0.7070312-0.7070312   c0.390625-0.390625,0.390625-1.0234375,0-1.4140625S109.0782776,59.2586327,108.6876526,59.6492577z"></path></g></svg>