<svg height='100px' width='100px'  fill="#000000" xmlns="http://www.w3.org/2000/svg" xmlns:xlink="http://www.w3.org/1999/xlink" version="1.1" x="0px" y="0px" viewBox="0 0 50 50" style="enable-background:new 0 0 50 50;" xml:space="preserve"><path d="M13.7839355,24.8101807c2.6690674,0,4.8406372-2.1713257,4.8406372-4.8406372  c0-2.6693726-2.1715698-4.8406372-4.8406372-4.8406372c-2.6690063,0-4.840332,2.1712646-4.840332,4.8406372  C8.9436035,22.638855,11.1149292,24.8101807,13.7839355,24.8101807z M15.3082886,23.2037964l1.7438354-1.7802124  C16.7027588,22.2055054,16.0812378,22.8379517,15.3082886,23.2037964z M17.3638306,19.9695435  c0,0.2658691-0.0313721,0.524292-0.0866699,0.7738647l-2.6449585,2.7001953  c-0.2724609,0.0665894-0.555542,0.1057739-0.8482666,0.1057739c-0.2017822,0-0.3984375-0.020874-0.5911865-0.0531006  l4.1066284-4.1922607C17.3401489,19.5199585,17.3638306,19.7418823,17.3638306,19.9695435z M17.2119751,18.942749  l-4.3820801,4.4735107c-0.3459473-0.0959473-0.6705322-0.2416992-0.9661255-0.4306641l4.897583-5  C16.9564819,18.2773438,17.1088867,18.5993652,17.2119751,18.942749z M16.5715942,17.7288818l-4.968689,5.0726318  c-0.2629395-0.2030029-0.4960938-0.4413452-0.6939087-0.7084961l4.9398193-5.0426636  C16.119812,17.2426758,16.3634644,17.470459,16.5715942,17.7288818z M12.0300293,16.8522949l-1.4145508,1.4572144  C10.9370117,17.6982422,11.4296875,17.1915283,12.0300293,16.8522949z M10.2044067,19.9695435  c0-0.3150024,0.0449829-0.6188965,0.1217651-0.9101563l2.4487305-2.5224609  c0.3204346-0.0944214,0.6585083-0.1472168,1.0090332-0.1472168c0.1409912,0,0.2794189,0.0103149,0.4161987,0.0262451  l-3.9585571,4.0407104C10.2196655,20.296936,10.2044067,20.1351929,10.2044067,19.9695435z M14.5773315,16.4813232  c0.3568115,0.0811768,0.692749,0.2160034,1.0005493,0.3952026l-4.8485718,4.9495239  c-0.18573-0.3045044-0.3267212-0.6380615-0.4151611-0.993103L14.5773315,16.4813232z M13.7839355,26.0518799  c-5.9145508,0-10.5021973,3.5188599-10.5021973,6.5465088c0,3.4259644,5.0474854,3.8981323,10.5021973,3.8981323  c5.4547729,0,10.5025635-0.472168,10.5025635-3.8981323C24.286499,29.5707397,19.6988525,26.0518799,13.7839355,26.0518799z   M8.0574341,28.6473999l-3.47052,3.5429688C4.8290405,30.9407349,6.1464844,29.6053467,8.0574341,28.6473999z M4.5530396,32.675415  l4.2974243-4.387207c0.6265259-0.2581787,1.3012085-0.4741821,2.0118408-0.6373291l-5.8806763,6.0030518  C4.7218628,33.3778076,4.5718384,33.053833,4.5530396,32.675415z M5.2172241,33.8638306l6.1967163-6.3256836  c0.5136719-0.0950928,1.0408936-0.1639404,1.5814209-0.1971436l-6.8839722,7.0268555  C5.760437,34.2243652,5.460022,34.0571289,5.2172241,33.8638306z M6.4316406,34.491333l7.0210571-7.166748  c0.1107788-0.0029297,0.2197266-0.0119019,0.3312378-0.0119019c0.3141479,0,0.6253052,0.0118408,0.9328613,0.0341187  L7.446228,34.7689819C7.0817261,34.6900635,6.7419434,34.5979614,6.4316406,34.491333z M7.8161011,34.8417358l7.3001709-7.4522705  c0.4120483,0.0427246,0.8172607,0.1008911,1.2120361,0.1794434l-7.3023682,7.4544067  C8.6030884,34.9747925,8.2006226,34.9133301,7.8161011,34.8417358z M9.4274292,35.0639038l7.2649536-7.4163208  c0.3751221,0.0856934,0.7387695,0.1873779,1.0923462,0.3013306l-7.0657959,7.2130737  C10.2785645,35.1376953,9.8475952,35.1049194,9.4274292,35.0639038z M11.1395874,35.1829834l6.9817505-7.1272583  c0.3453369,0.1218262,0.6733398,0.2596436,0.9919434,0.4046021l-6.6257324,6.7634888  C12.0366211,35.2158813,11.5861816,35.2028198,11.1395874,35.1829834z M13.7839355,35.2357178  c-0.2850952,0-0.5731201-0.0015869-0.8621826-0.0046997l6.4934692-6.6286011  c0.3171387,0.1553345,0.6212769,0.3186646,0.9047241,0.4928589l-6.0125732,6.1379395  C14.1325073,35.2342529,13.9570923,35.2357178,13.7839355,35.2357178z M14.7524414,35.229248l5.8356934-5.9573364  c0.2888184,0.190979,0.5628662,0.3878174,0.8068237,0.593689l-5.2207031,5.3289185  C15.7022705,35.2127075,15.2262573,35.2233887,14.7524414,35.229248z M16.6369629,35.1726074l4.9903564-5.093811  c0.2562866,0.2363281,0.4875488,0.4776611,0.6779175,0.723999l-4.1751709,4.262146  C17.6459961,35.1120605,17.1464233,35.1472778,16.6369629,35.1726074z M23.0256958,32.5983887  c0,0.9649048-0.848938,1.5787964-2.1398315,1.9715576l2.1190186-2.1630859  C23.0108032,32.4706421,23.0256958,32.5352783,23.0256958,32.5983887z M20.2883911,34.7294312  c-0.5127563,0.1193237-1.0708618,0.2145386-1.6678467,0.2852173l3.8674927-3.9481201  c0.2122803,0.3189697,0.3651123,0.6400757,0.4501343,0.9580078L20.2883911,34.7294312z M45.3407593,15.8879395H27.1380615  c-0.3481445,0-0.6304321,0.2819824-0.6304321,0.6304321v3.7835693c0,0.3484497,0.2822876,0.6304321,0.6304321,0.6304321h18.2026978  c0.3483887,0,0.6303711-0.2819824,0.6303711-0.6304321v-3.7835693  C45.9711304,16.1699219,45.6891479,15.8879395,45.3407593,15.8879395z M27.7684326,17.1487427h0.7963867l-0.7963867,0.8131104  V17.1487427z M27.7684326,19.6715698v-1.2593384l1.2376099-1.2634888h1.3880005l-2.4713135,2.5228271H27.7684326z   M28.3639526,19.6715698l2.4713135-2.5228271h1.3878174l-2.4712524,2.5228271H28.3639526z M30.1929932,19.6715698  l2.4713135-2.5228271h1.2860718l-2.4712524,2.5228271H30.1929932z M31.9203491,19.6715698l2.4711914-2.5228271h1.3878174  l-2.4711914,2.5228271H31.9203491z M33.7493286,19.6715698l2.4712524-2.5228271h1.3881226l-2.4711914,2.5228271H33.7493286z   M35.5786743,19.6715698l2.4712524-2.5228271h1.3873901l-2.4711914,2.5228271H35.5786743z M40.2452393,19.6715698h-1.0085449  l1.0085449-1.0294189V19.6715698z M40.2452393,18.1917114l-1.449707,1.4798584h-1.3881836l2.4711914-2.5228271h0.3666992V18.1917114  z M44.7103271,19.6715698h-3.2042847v-2.5228271h3.2042847V19.6715698z M45.3407593,22.9152832H27.1380615  c-0.3481445,0-0.6304321,0.2819214-0.6304321,0.6303711v3.78302c0,0.3484497,0.2822876,0.6303711,0.6304321,0.6303711h18.2026978  c0.3483887,0,0.6303711-0.2819214,0.6303711-0.6303711v-3.78302C45.9711304,23.1972046,45.6891479,22.9152832,45.3407593,22.9152832  z M27.7684326,24.1760864h1.1271973l-1.1271973,1.1503296V24.1760864z M27.7684326,26.6983032v-0.9215698l1.5684814-1.600647  h1.3877563l-2.4707642,2.5222168H27.7684326z M28.6950684,26.6983032l2.4707642-2.5222168h1.3880005l-2.4710693,2.5222168  H28.6950684z M33.0480347,26.6983032h-0.6948853l0.6948853-0.7094116V26.6983032z M33.0480347,25.5385132l-1.1361084,1.15979  h-1.3879395l2.4711304-2.5222168h0.0529175V25.5385132z M44.7103271,26.6983032H34.3087769v-2.5222168h10.4015503V26.6983032z   M45.3407593,29.942627H27.1380615c-0.3481445,0-0.6304321,0.2819214-0.6304321,0.6303711v3.78302  c0,0.3484497,0.2822876,0.6303711,0.6304321,0.6303711h18.2026978c0.3483887,0,0.6303711-0.2819214,0.6303711-0.6303711v-3.78302  C45.9711304,30.2245483,45.6891479,29.942627,45.3407593,29.942627z M27.7684326,31.3786011l0.1716309-0.1751709h1.3875732  l-1.5592041,1.5916748V31.3786011z M27.7684326,33.7255859v-0.4800415l2.0003662-2.0421143h1.3880005l-2.4706421,2.5221558  H27.7684326z M29.1273193,33.7255859l2.4706421-2.5221558h1.3880615l-2.4711304,2.5221558H29.1273193z M30.9561768,33.7255859  l2.4710693-2.5221558h1.3156738l-2.4703979,2.5221558H30.9561768z M35.6090088,33.7255859h-1.0664063l1.0664063-1.088562V33.7255859  z M35.6090088,32.1866455l-1.5076294,1.5389404h-1.3876953l2.4703979-2.5221558h0.4249268V32.1866455z M44.7103271,33.7255859  H36.869751v-2.5221558h7.8405762V33.7255859z"></path></svg>