<svg height='100px' width='100px'  fill="#000000" xmlns="http://www.w3.org/2000/svg" xmlns:xlink="http://www.w3.org/1999/xlink" version="1.1" x="0px" y="0px" viewBox="0 0 64 64" style="enable-background:new 0 0 64 64;" xml:space="preserve"><path d="M61.573,39.181L56,35.279V3c0-0.552-0.447-1-1-1H9C8.447,2,8,2.448,8,3v32.279l-5.573,3.901C2.159,39.368,2,39.674,2,40v22  h2V40.521l8-5.6v1.18c0,1.603-0.624,3.109-1.757,4.243l-1.95,1.95C8.105,42.48,8,42.735,8,43v13c0,0.552,0.447,1,1,1h11v5h2v-5h20v5  h2v-5h11c0.553,0,1-0.448,1-1V43c0-0.265-0.105-0.52-0.293-0.707l-1.95-1.95C52.624,39.21,52,37.703,52,36.101v-1.18l8,5.6V62h2V40  C62,39.674,61.841,39.368,61.573,39.181z M51.573,32.181c-0.306-0.213-0.704-0.239-1.035-0.068C50.207,32.285,50,32.627,50,33v3.101  c0,2.137,0.832,4.146,2.343,5.657L54,43.414V55H10V43.414l1.657-1.657C13.168,40.246,14,38.237,14,36.101V33  c0-0.373-0.207-0.715-0.538-0.887c-0.331-0.171-0.729-0.145-1.035,0.068L10,33.879V4h44v29.879L51.573,32.181z"></path><path d="M43,38c0.553,0,1-0.448,1-1V15c0-0.552-0.447-1-1-1H21c-0.553,0-1,0.448-1,1v22c0,0.552,0.447,1,1,1H43z M22,16h20v20h-2v-3  c0-2.953-1.841-5.479-4.433-6.506C36.451,25.592,37,24.36,37,23c0-2.757-2.243-5-5-5s-5,2.243-5,5c0,1.36,0.549,2.592,1.433,3.494  C25.841,27.521,24,30.047,24,33v3h-2V16z M29,23c0-1.654,1.346-3,3-3s3,1.346,3,3s-1.346,3-3,3S29,24.654,29,23z M26,36v-3  c0-2.757,2.243-5,5-5h2c2.757,0,5,2.243,5,5v3H26z"></path><rect x="25" y="10" width="14" height="2"></rect><rect x="20" y="6" width="11" height="2"></rect><rect x="33" y="6" width="11" height="2"></rect><rect x="18" y="42" width="6" height="2"></rect><rect x="26" y="42" width="20" height="2"></rect><rect x="26" y="46" width="20" height="2"></rect><rect x="26" y="50" width="20" height="2"></rect></svg>