<svg height='100px' width='100px'  fill="#000000" xmlns="http://www.w3.org/2000/svg" viewBox="0 0 64 64" x="0px" y="0px"><title>job</title><g><path d="M54,12H53V10a3,3,0,0,0-3-3H49V5a3,3,0,0,0-3-3H10A3,3,0,0,0,7,5V49a3,3,0,0,0,3,3h1v2a3,3,0,0,0,3,3h1v2a3,3,0,0,0,3,3H54a3,3,0,0,0,3-3V15A3,3,0,0,0,54,12ZM9,49V5a1,1,0,0,1,1-1H46a1,1,0,0,1,1,1V49a1,1,0,0,1-1,1H10A1,1,0,0,1,9,49Zm4,5V52H46a3,3,0,0,0,3-3V9h1a1,1,0,0,1,1,1V54a1,1,0,0,1-1,1H14A1,1,0,0,1,13,54Zm42,5a1,1,0,0,1-1,1H18a1,1,0,0,1-1-1V57H50a3,3,0,0,0,3-3V14h1a1,1,0,0,1,1,1Z"></path><path d="M18,16a4,4,0,0,0,4-4V10a4,4,0,0,0-8,0v2A4,4,0,0,0,18,16Zm-2-6a2,2,0,0,1,4,0v2a2,2,0,0,1-4,0Z"></path><path d="M14,30h8a3,3,0,0,0,3-3V19a3,3,0,0,0-3-3H20a1,1,0,0,0-.707.293L18,17.586l-1.293-1.293A1,1,0,0,0,16,16H14a3,3,0,0,0-3,3v8A3,3,0,0,0,14,30Zm-1-3V20.618l2,1V28H14A1,1,0,0,1,13,27Zm9,1H21V21.618l2-1V27A1,1,0,0,1,22,28ZM14,18h1.586l1.707,1.707a1,1,0,0,0,1.414,0L20.414,18H22a.987.987,0,0,1,.826.469l-3.273,1.636A1,1,0,0,0,19,21v7H17V21a1,1,0,0,0-.553-.895l-3.273-1.636A.987.987,0,0,1,14,18Z"></path><path d="M44,6H28a1,1,0,0,0-1,1V17a1,1,0,0,0,1,1H44a1,1,0,0,0,1-1V7A1,1,0,0,0,44,6ZM43,16H29V8H43Z"></path><path d="M44,20H28a1,1,0,0,0-1,1V31a1,1,0,0,0,1,1H44a1,1,0,0,0,1-1V21A1,1,0,0,0,44,20ZM43,30H29V22H43Z"></path><path d="M42,34H14a3,3,0,0,0-3,3v8a3,3,0,0,0,3,3H42a3,3,0,0,0,3-3V37A3,3,0,0,0,42,34Zm1,11a1,1,0,0,1-1,1H14a1,1,0,0,1-1-1V37a1,1,0,0,1,1-1H42a1,1,0,0,1,1,1Z"></path><rect x="15" y="38" width="2" height="2"></rect><rect x="15" y="42" width="2" height="2"></rect><rect x="19" y="38" width="22" height="2"></rect><rect x="19" y="42" width="22" height="2"></rect></g></svg>