<svg height='100px' width='100px'  fill="#000000" xmlns="http://www.w3.org/2000/svg" data-name="Layer 1" viewBox="0 0 128 128" x="0px" y="0px"><title>Mordern Business 1 solid</title><path d="M34.15,9.12,2.56.08A2,2,0,0,0,0,2V126a2,2,0,0,0,2.87,1.8l31.59-15a2,2,0,0,0,1.14-1.8V11A2,2,0,0,0,34.15,9.12ZM31.59,55.51a4.92,4.92,0,0,0-1.8-.35H28.54a5,5,0,0,0,0,9.91h1.25a4.9,4.9,0,0,0,1.8-.35v45L4,122.83V4.66L7.93,5.78V35.5a2,2,0,0,0,4,0V6.92l4,1.15V31.5a2,2,0,0,0,4,0V9.22l4,1.16a2,2,0,0,0,0,.22V27.5a2,2,0,0,0,4,0v-16l3.57,1Zm-.87,4.64a.93.93,0,0,1-.93.93H28.54a.94.94,0,0,1-.93-1,.93.93,0,0,1,.93-.93h1.25A.94.94,0,0,1,30.72,60.15Z"></path><path d="M127.2.4a2,2,0,0,0-1.76-.33l-31.62,9A2,2,0,0,0,92.36,11V111a2,2,0,0,0,1.14,1.8l31.62,15A2,2,0,0,0,128,126V2A2,2,0,0,0,127.2.4ZM124,122.83,96.38,109.7v-45a4.92,4.92,0,0,0,1.81.35h1.25a5,5,0,0,0,0-9.91H98.19a4.91,4.91,0,0,0-1.81.35v-43l3.59-1v16a2,2,0,0,0,4,0V10.6a2,2,0,0,0,0-.22l4-1.15V31.5a2,2,0,0,0,4,0V8.08l4-1.15V35.5a2,2,0,0,0,4,0V5.78L124,4.66ZM97.26,60.09a.93.93,0,0,1,.93-.93h1.25a.94.94,0,0,1,.93,1,.93.93,0,0,1-.93.93H98.19A.94.94,0,0,1,97.26,60.09Z"></path><path d="M63.33,44.08c4.11,0,9.16-6.14,9.16-11.14a9.17,9.17,0,1,0-18.32,0C54.17,37.93,59.22,44.08,63.33,44.08Z"></path><path d="M46.56,51a6.89,6.89,0,0,0-.1,1L46.1,67v.22a5.13,5.13,0,0,0,1.36,4.26A6.45,6.45,0,0,0,52.1,72.8V93.5a2,2,0,0,0,.19.84v2.39a4,4,0,0,0,4,4h1.9a4,4,0,0,0,4-4V94.13a2,2,0,0,0,.11-.63v-10a1.31,1.31,0,0,1,.9-.63c.28,0,.73.27,1.1.76l0,9.86a2,2,0,0,0,0,.36v2.88a4,4,0,0,0,4,4h1.9a4,4,0,0,0,4-4V94.49a2,2,0,0,0,.27-1V72.61l1.63.05h.17c2.43-.13,4.28-2.63,4.2-5.67L80.2,52a6.86,6.86,0,0,0-.1-1A5.42,5.42,0,0,0,75,45.47H69.88a2,2,0,0,0-1.51.58L63,51.44l-5.41-5.38a2,2,0,0,0-.31-.25l-.15-.08-.2-.1-.2-.06-.18-.05a2,2,0,0,0-.39,0H51.68A5.42,5.42,0,0,0,46.56,51ZM58.22,96.73h-1.9V95.5h1.9Zm12,0h-1.9V95.5h1.9Zm.27-5.23h-2.2l0-8.45a2,2,0,0,0-.28-1,5.73,5.73,0,0,0-5-3.16A5.42,5.42,0,0,0,58.57,82a2,2,0,0,0-.24.94V91.5H56.12V76.17H70.54ZM61,55.1v8.77a2,2,0,0,0,4,0V55.1l5.65-5.62H75c.53,0,1.11.72,1.11,1.74a2,2,0,0,0,0,.43,2.6,2.6,0,0,1,.05.47l.36,15a2.25,2.25,0,0,1-.47,1.57l-1.55,0-.07-5.13a2,2,0,0,0-4,.06h0c0,.27.08,5.79.08,7a2,2,0,0,0,0,.28v1.34H56.11L56,63.5A2,2,0,0,0,54,61.27c-1.5,0-1.87,1.11-2,2.17h0v.06c0,.32,0,.64,0,.92,0,.7,0,1.62,0,2.55V68.8a3.63,3.63,0,0,1-1.8-.29,3.92,3.92,0,0,1-.06-1.19l.37-15.2a2.56,2.56,0,0,1,.05-.48,2.6,2.6,0,0,0,0-.49c0-1,.58-1.68,1.1-1.68h3.63Z"></path><path d="M51.69,104.38a2,2,0,1,0,0,4H77.42a2,2,0,1,0,0-4Z"></path><path d="M47.68,116.38H81.44a2,2,0,1,0,0-4H47.68a2,2,0,1,0,0,4Z"></path><path d="M85.45,120.38H43.66a2,2,0,1,0,0,4h41.8a2,2,0,1,0,0-4Z"></path></svg>