<svg height='100px' width='100px'  fill="#000000" xmlns="http://www.w3.org/2000/svg" xmlns:xlink="http://www.w3.org/1999/xlink" version="1.1" x="0px" y="0px" viewBox="0 0 64 64" style="enable-background:new 0 0 64 64;" xml:space="preserve"><path d="M12.974,37.001C13.609,36.162,14,35.13,14,34c0-2.757-2.243-5-5-5s-5,2.243-5,5c0,1.13,0.391,2.162,1.026,3.001  C2.805,37.004,1,38.811,1,41.032V50c0,0.553,0.447,1,1,1h2v11c0,0.553,0.447,1,1,1h8c0.553,0,1-0.447,1-1V51h2c0.553,0,1-0.447,1-1  v-8.968C17,38.811,15.195,37.004,12.974,37.001z M9,31c1.654,0,3,1.346,3,3s-1.346,3-3,3s-3-1.346-3-3S7.346,31,9,31z M15,49h-1v-8  h-2v20h-2V49H8v12H6V41H4v8H3v-7.968C3,39.912,3.912,39,5.032,39h7.936C14.088,39,15,39.912,15,41.032V49z"></path><path d="M62,3h-5V2c0-0.553-0.447-1-1-1H42c-0.553,0-1,0.447-1,1v1h-5c-0.553,0-1,0.447-1,1v1c0,3.539,2.644,6.467,6.059,6.929  c0.424,3.645,3.306,6.545,6.941,7.001V22h-4c-0.409,0-0.776,0.249-0.929,0.629L42.523,24h-5.19L33.6,21.2L32.4,22.8L34,24h-3  c-3.577,0-6.532,2.7-6.946,6.167C22.865,30.566,22,31.678,22,33s0.865,2.434,2.054,2.833C24.468,39.3,27.423,42,31,42h9.667  l3.733,2.8l1.199-1.6L44,42h8c2.757,0,5,2.243,5,5v0.184c-1.161,0.414-2,1.514-2,2.816s0.839,2.402,2,2.816V53c0,2.757-2.243,5-5,5  h-6.667L41.6,55.2L40.4,56.8L42,58H22.816c-0.414-1.161-1.514-2-2.816-2c-1.654,0-3,1.346-3,3s1.346,3,3,3  c1.302,0,2.402-0.839,2.816-2H42l-1.6,1.2l1.199,1.6l3.733-2.8H52c3.859,0,7-3.141,7-7v-0.184c1.161-0.414,2-1.514,2-2.816  s-0.839-2.402-2-2.816V47c0-3.859-3.141-7-7-7h-8l1.6-1.2L44.4,37.2L40.667,40H31c-2.486,0-4.538-1.829-4.92-4.209  C27.201,35.356,28,34.273,28,33s-0.799-2.356-1.92-2.791C26.462,27.829,28.514,26,31,26h3l-1.6,1.2l1.199,1.6l3.733-2.8h4.39  l-0.652,1.629c-0.123,0.308-0.085,0.657,0.101,0.932C41.358,28.835,41.668,29,42,29h14c0.332,0,0.642-0.165,0.828-0.439  c0.186-0.274,0.224-0.624,0.101-0.932l-2-5C54.776,22.249,54.409,22,54,22h-4v-3.069c3.635-0.456,6.517-3.356,6.941-7.001  C60.356,11.467,63,8.539,63,5V4C63,3.447,62.553,3,62,3z M37,5h4v4.899C38.721,9.434,37,7.414,37,5z M20,60c-0.552,0-1-0.448-1-1  s0.448-1,1-1s1,0.448,1,1S20.552,60,20,60z M58,51c-0.552,0-1-0.448-1-1s0.448-1,1-1s1,0.448,1,1S58.552,51,58,51z M25,32  c0.552,0,1,0.448,1,1s-0.448,1-1,1s-1-0.448-1-1S24.448,32,25,32z M54.523,27H43.477l1.2-3h8.646L54.523,27z M55,11  c0,3.309-2.691,6-6,6s-6-2.691-6-6V3h12V11z M57,9.899V5h4C61,7.414,59.279,9.434,57,9.899z"></path><path d="M45.932,10.442l-0.391,2.396c-0.062,0.378,0.099,0.758,0.411,0.979c0.313,0.221,0.726,0.243,1.06,0.058L49,12.776  l1.988,1.099C51.139,13.959,51.306,14,51.472,14c0.202,0,0.404-0.062,0.576-0.183c0.312-0.221,0.473-0.601,0.411-0.979l-0.391-2.396  l1.647-1.688c0.262-0.269,0.352-0.66,0.232-1.016s-0.427-0.614-0.797-0.671l-2.236-0.342l-1.01-2.15C49.74,4.224,49.388,4,49,4  s-0.74,0.224-0.905,0.575l-1.01,2.15l-2.236,0.342c-0.37,0.057-0.678,0.315-0.797,0.671s-0.029,0.747,0.232,1.016L45.932,10.442z   M47.915,8.622c0.329-0.05,0.612-0.262,0.754-0.563L49,7.354l0.331,0.705c0.142,0.302,0.425,0.514,0.754,0.563l0.84,0.128  l-0.641,0.657c-0.222,0.227-0.322,0.546-0.271,0.859l0.141,0.862l-0.67-0.37c-0.15-0.083-0.316-0.125-0.483-0.125  s-0.333,0.042-0.483,0.125l-0.67,0.37l0.141-0.862c0.051-0.313-0.05-0.633-0.271-0.859L47.075,8.75L47.915,8.622z"></path></svg>