<svg height='100px' width='100px'  fill="#000000" xmlns="http://www.w3.org/2000/svg" xmlns:xlink="http://www.w3.org/1999/xlink" version="1.1" x="0px" y="0px" viewBox="0 0 66 66" enable-background="new 0 0 66 66" xml:space="preserve"><g><g><g><g><path d="M29.3,26.8v3.4c-1.1-0.4-1.9-0.7-1.9-1.8C27.4,27.4,28.3,26.9,29.3,26.8z"></path></g><g><path d="M32.6,34.8c0,1.1-1,1.6-2,1.7V33C31.8,33.3,32.6,33.7,32.6,34.8z"></path></g><g><path d="M29.8,19.9c-6.6,0-12,5.4-12,12c0,6.6,5.4,12,12,12c6.6,0,12-5.4,12-12C41.8,25.3,36.4,19.9,29.8,19.9z M30.6,38.6V40      h-1.3v-1.4c-1.8-0.2-3.4-0.9-4.9-2.1l1.4-1.7c1.1,1,2.2,1.5,3.4,1.7v-3.8c-2.6-0.6-4.3-1.5-4.3-4c0-2.4,1.9-3.9,4.3-4v-1h1.3v1      c1.4,0.1,2.8,0.6,4.1,1.5L33.4,28c-0.9-0.6-1.8-1-2.8-1.1v3.7h0.1c2.5,0.6,4.4,1.5,4.4,4.1C35.1,37.1,33.1,38.5,30.6,38.6z"></path></g><g><polygon points="62.4,9.5 55.9,9.5 55.9,3     "></polygon></g><g><path d="M54.8,11.6c-0.6,0-1-0.5-1-1.1v-9h-23c-0.6,0-1,0.5-1,1v15.3c7.7,0,14,6.3,14,14.1c0,2.8-0.8,5.5-2.3,7.7h21.3      c0.6,0,1-0.5,1-1v-27H54.8z M35.7,9.3c-0.6,0-1-0.5-1-1c0-0.6,0.5-1,1-1h12.3c0.6,0,1,0.5,1,1c0,0.6-0.5,1-1,1H35.7z M58.1,33.8      H52c-0.6,0-1-0.5-1-1c0-0.6,0.5-1,1-1h6.1c0.6,0,1.1,0.5,1.1,1C59.2,33.4,58.7,33.8,58.1,33.8z M58.1,25.7H46.9      c-0.6,0-1-0.5-1-1c0-0.6,0.5-1.1,1-1.1h11.2c0.6,0,1.1,0.5,1.1,1.1C59.2,25.2,58.7,25.7,58.1,25.7z M58.1,17.5H42.8      c-0.6,0-1-0.5-1-1c0-0.6,0.5-1.1,1-1.1h15.3c0.6,0,1.1,0.5,1.1,1.1C59.2,17,58.7,17.5,58.1,17.5z"></path></g><g><path d="M34,51l6.7-3.7c1.2-0.6,2.4-0.4,3.1,0.5l0.6,0.8l-7.1,4.2c-0.6-0.8-1.5-1.4-2.6-1.6C34.5,51.1,34.2,51.1,34,51z"></path></g><g><path d="M50.3,50c0.2,0.4,0.3,0.9,0.2,1.4c-0.1,0.4-0.3,1-1,1.5L31.3,63.5c-1.9,1.2-4.3,1.3-6.4,0.4c-3-1.2-5.4-2.4-7.3-3.4      c-3.7-1.9-6.3-3.4-9.5-1.5l-1.5,0.9l-4.5-9.6c3.1-1.4,5.2-2.5,6.6-3.2c6.1-3,7.7-2.4,11.4,0.2c2.6,1.8,6.2,4.3,14.1,5.9      c1.3,0.3,1.9,1.5,1.6,2.6c-0.3,1-1.2,1.9-2.4,1.6L19,54.4c-0.6-0.1-1.1,0.2-1.2,0.8c-0.1,0.6,0.2,1.1,0.8,1.2l14.5,3.1      c2.1,0.4,4.2-0.9,4.8-3.1c0.2-0.5,0.2-1.1,0.1-1.6l9.2-5.4C48.2,48.7,49.6,49,50.3,50z"></path></g></g></g></g></svg>