<?xml version="1.0" encoding="UTF-8"?>
<svg width="57px" height="54px" viewBox="0 0 57 54" version="1.1" xmlns="http://www.w3.org/2000/svg" xmlns:xlink="http://www.w3.org/1999/xlink" xmlns:sketch="http://www.bohemiancoding.com/sketch/ns">
    <title>search-sun</title>
    <description>Created with Sketch (http://www.bohemiancoding.com/sketch)</description>
    <defs></defs>
    <g id="Page-1" stroke="none" stroke-width="1" fill="none" fill-rule="evenodd" sketch:type="MSPage">
        <g id="search-sun" sketch:type="MSLayerGroup" fill="#E95459">
            <path d="M53.9035846,44.7058033 C50.6133692,42.3731803 46.3436308,39.193377 43.0534154,36.8607541 C42.2133231,36.2959672 41.4425077,35.164623 40.6032923,35.377082 C39.8324769,35.5187213 39.273,36.72 38.5723385,37.4972459 C38.2926,37.8513443 38.1522923,38.062918 38.5723385,38.4161311 C42.1431692,41.8783279 46.5532154,46.1186557 50.1231692,49.5817377 C50.7536769,50.2173443 51.4534615,50.2881639 52.0839692,49.6525574 C52.9240615,48.7336721 53.7641538,47.6731475 54.6042462,46.7551475 C54.7436769,46.5426885 54.8839846,46.3311148 54.8138308,46.0478361 C54.8138308,45.4122295 54.3937846,45.0590164 53.9035846,44.7058033 M26.6724923,12.9750492 C19.5317077,12.9750492 13.6510615,18.8406885 13.5809077,25.9076066 C13.5809077,33.256918 19.4615538,39.1225574 26.7417692,39.1225574 C33.9527077,39.1225574 39.8324769,33.3277377 39.8324769,26.1200656 C39.9035077,18.8406885 34.0228615,12.9750492 26.6724923,12.9750492 M56.4940154,46.6135082 C55.6539231,48.0272459 54.5340923,49.2285246 53.4835385,50.4298033 C52.1541231,52.0542295 50.4739385,52.1967541 48.9331846,50.7121967 C45.9235846,47.8147869 42.9832615,44.917377 39.9727846,41.9491475 C39.1326923,41.1727869 38.3627538,40.3946557 37.5226615,39.5465902 C37.2429231,39.2633115 36.7527231,39.0517377 37.1026154,38.4161311 C37.3122,37.9920984 35.8424769,37.5680656 35.6328923,37.7796393 C32.4829846,39.970623 28.9823077,40.9594426 25.1317385,40.6071148 C17.7112154,39.970623 11.6209846,33.0453443 12.0410308,25.5543934 C12.3918,18.6990492 16.7316923,13.3282623 23.3121231,11.7029508 C31.5727385,9.65360656 40.1130923,15.3776066 41.3030769,23.7874426 C41.7231231,26.8256066 41.3030769,29.653082 40.0429385,32.4088525 C39.9035077,32.6912459 40.4629846,34.459082 41.1636462,33.8225902 C41.3732308,33.6110164 41.5828154,33.9642295 41.7932769,34.1049836 C46.2033231,37.2148525 50.5432154,40.3247213 54.9541385,43.4328197 C55.7240769,43.9984918 56.1441231,44.7058033 56.4940154,45.4830492 L56.4940154,46.6135082" id="Fill-1" sketch:type="MSShapeGroup"></path>
            <path d="M16.9412769,23.0101967 C16.8711231,23.0101967 16.8009692,23.0101967 16.7316923,22.9384918 C16.3818,22.7968525 16.1713385,22.3745902 16.3116462,22.0204918 C17.9216769,17.4968852 22.2615692,14.4587213 27.0925385,14.4587213 C27.5125846,14.4587213 27.7923231,14.742 27.7923231,15.1660328 C27.7923231,15.5900656 27.5125846,15.872459 27.0925385,15.872459 C22.8219231,15.872459 19.0415077,18.5582951 17.6410615,22.514459 C17.5016308,22.7968525 17.2210154,23.0101967 16.9412769,23.0101967" id="Fill-2" sketch:type="MSShapeGroup"></path>
            <path d="M37.8024,26.5432131 C37.3823538,26.5432131 37.1026154,26.2608197 37.1026154,25.8367869 C37.1026154,23.3625246 36.1923692,21.0307869 34.5823385,19.1930164 C34.3017231,18.910623 34.3718769,18.4865902 34.6524923,18.2041967 C34.9322308,17.9218033 35.3522769,17.9917377 35.6320154,18.2750164 C37.5226615,20.3951803 38.5723385,23.0801311 38.5723385,25.8367869 C38.5021846,26.2608197 38.1522923,26.5432131 37.8024,26.5432131" id="Fill-3" sketch:type="MSShapeGroup"></path>
            <path d="M26.6014615,6.40209836 C26.1814154,6.40209836 25.9016769,6.11970492 25.9016769,5.69567213 L25.9016769,0.748918033 C25.9016769,0.324885246 26.1814154,0.0416065574 26.6014615,0.0416065574 C27.0215077,0.0416065574 27.3012462,0.324885246 27.3012462,0.748918033 L27.3012462,5.69567213 C27.3012462,6.04888525 27.0215077,6.40209836 26.6014615,6.40209836" id="Fill-4" sketch:type="MSShapeGroup"></path>
            <path d="M26.6014615,53.1147541 C26.1814154,53.1147541 25.9016769,52.8323607 25.9016769,52.4074426 L25.9016769,47.4606885 C25.9016769,47.037541 26.1814154,46.7542623 26.6014615,46.7542623 C27.0215077,46.7542623 27.3012462,47.037541 27.3012462,47.4606885 L27.3012462,52.4074426 C27.3012462,52.8323607 27.0215077,53.1147541 26.6014615,53.1147541" id="Fill-5" sketch:type="MSShapeGroup"></path>
            <path d="M41.5126615,12.4801967 C41.3022,12.4801967 41.1627692,12.409377 41.0224615,12.2677377 C40.7427231,11.9853443 40.7427231,11.5613115 41.0224615,11.278918 L44.5231385,7.81583607 C44.8028769,7.53344262 45.2229231,7.53344262 45.5026615,7.81583607 C45.7832769,8.09822951 45.7832769,8.5222623 45.5026615,8.80554098 L42.0028615,12.2677377 C41.8625538,12.409377 41.6529692,12.4801967 41.5126615,12.4801967" id="Fill-6" sketch:type="MSShapeGroup"></path>
            <path d="M8.33076923,45.5529836 C8.12118462,45.5529836 7.98087692,45.4821639 7.84056923,45.3414098 C7.56083077,45.0581311 7.56083077,44.6340984 7.84056923,44.3517049 L11.3412462,40.888623 C11.6209846,40.6062295 12.0410308,40.6062295 12.3207692,40.888623 C12.6013846,41.1719016 12.6013846,41.5950492 12.3207692,41.8783279 L8.82096923,45.3414098 C8.68066154,45.4821639 8.47107692,45.5529836 8.33076923,45.5529836" id="Fill-7" sketch:type="MSShapeGroup"></path>
            <path d="M52.5732923,27.2496393 L47.6730462,27.2496393 C47.253,27.2496393 46.9723846,26.9672459 46.9723846,26.5432131 C46.9723846,26.1191803 47.253,25.8367869 47.6730462,25.8367869 L52.5732923,25.8367869 C52.9933385,25.8367869 53.2730769,26.1191803 53.2730769,26.5432131 C53.2730769,26.9672459 52.9933385,27.2496393 52.5732923,27.2496393" id="Fill-8" sketch:type="MSShapeGroup"></path>
            <path d="M5.60003077,27.2496393 L0.700661538,27.2496393 C0.279738462,27.2496393 0.000876923077,26.9672459 0.000876923077,26.5432131 C0.000876923077,26.1191803 0.279738462,25.8367869 0.700661538,25.8367869 L5.60003077,25.8367869 C6.02007692,25.8367869 6.29981538,26.1191803 6.29981538,26.5432131 C6.29981538,26.9672459 6.02007692,27.2496393 5.60003077,27.2496393" id="Fill-9" sketch:type="MSShapeGroup"></path>
            <path d="M11.7604154,12.4801967 C11.5508308,12.4801967 11.4105231,12.409377 11.2702154,12.2677377 L7.77041538,8.80554098 C7.4898,8.5222623 7.4898,8.09822951 7.77041538,7.81583607 C8.05015385,7.53344262 8.4702,7.53344262 8.74993846,7.81583607 L12.2506154,11.278918 C12.5303538,11.5613115 12.5303538,11.9853443 12.2506154,12.2677377 C12.1804615,12.409377 11.9708769,12.4801967 11.7604154,12.4801967" id="Fill-10" sketch:type="MSShapeGroup"></path>
        </g>
    </g>
</svg>