<?xml version="1.0" encoding="UTF-8"?>
<svg width="57px" height="57px" viewBox="0 0 57 57" version="1.1" xmlns="http://www.w3.org/2000/svg" xmlns:xlink="http://www.w3.org/1999/xlink" xmlns:sketch="http://www.bohemiancoding.com/sketch/ns">
    <title>target</title>
    <description>Created with Sketch (http://www.bohemiancoding.com/sketch)</description>
    <defs>
        <path d="M54.9093559,6.91349842 L49.2141864,6.91349842 L49.2141864,1.22026113 C49.2141864,0.727549263 48.9175932,0.282176382 48.4615932,0.0928204496 C48.0046271,-0.0955693809 47.481,0.00780350043 47.1312712,0.357532314 L41.8631186,5.62568486 C37.5146949,2.89161706 32.5151186,1.45212553 27.3387458,1.45212553 C12.264661,1.45115943 0,13.7158204 0,28.7908713 C0,43.8659221 12.264661,56.1305832 27.3397119,56.1305832 C42.4147627,56.1305832 54.6794237,43.8659221 54.6794237,28.7908713 C54.6794237,23.6144984 53.238,18.613956 50.5039322,14.2636001 L55.7730508,8.99641367 C56.1218136,8.64668486 56.2261525,8.12112553 56.0377627,7.66609164 C55.8484068,7.21009164 55.4030339,6.91349842 54.9093559,6.91349842 L54.9093559,6.91349842 Z M52.2380847,28.7908713 C52.2380847,42.5201425 41.0680169,53.6902103 27.3397119,53.6902103 C13.6104407,53.6902103 2.44037288,42.5201425 2.44037288,28.7908713 C2.44037288,15.0616001 13.6104407,3.89249842 27.3397119,3.89249842 C31.8649322,3.89249842 36.2413729,5.10302384 40.0864576,7.40137977 L36.5534237,10.9344137 C36.3254237,11.1633798 36.1959661,11.4734984 36.1959661,11.7971425 L36.1959661,14.4220408 C33.5478814,12.790295 30.4834068,11.8976171 27.340678,11.8976171 L27.3397119,11.8976171 C18.0245593,11.8976171 10.4464576,19.4757188 10.4464576,28.7908713 C10.4464576,38.1050577 18.0245593,45.6831594 27.3397119,45.6831594 C36.6529322,45.6831594 44.2300678,38.1050577 44.2300678,28.7908713 C44.2300678,25.6462103 43.3364237,22.5798035 41.7037119,19.9297866 L44.3305424,19.9297866 C44.6541864,19.9297866 44.9643051,19.801295 45.1932712,19.573295 L48.7263051,16.0402611 C51.0256271,19.8882442 52.2380847,24.2646849 52.2380847,28.7908713 L52.2380847,28.7908713 Z M36.1959661,18.2072272 L30.9481017,23.4560577 C29.9182373,22.7566001 28.6748644,22.346973 27.3387458,22.346973 C23.7854237,22.346973 20.8938814,25.2375493 20.8938814,28.7908713 C20.8938814,32.3441933 23.7854237,35.2347696 27.3387458,35.2347696 C30.8920678,35.2347696 33.7826441,32.3441933 33.7826441,28.7908713 C33.7826441,27.4537866 33.3730169,26.2113798 32.6735593,25.1805493 L37.9233559,19.9307527 L38.7377797,19.9307527 C40.7018644,22.4571086 41.7887288,25.5776171 41.7887288,28.7918374 C41.7887288,36.7612103 35.3071525,43.2437527 27.3387458,43.2437527 C19.3693729,43.2437527 12.8868305,36.7612103 12.8868305,28.7918374 C12.8868305,20.8224645 19.370339,14.3379899 27.3397119,14.3379899 L27.340678,14.3379899 C30.5529661,14.3379899 33.6705763,15.4248543 36.1959661,17.3870069 L36.1959661,18.2072272 L36.1959661,18.2072272 Z M31.3422712,28.7908713 C31.3422712,30.9993798 29.5462881,32.7953628 27.3387458,32.7953628 C25.1312034,32.7953628 23.3342542,30.9993798 23.3342542,28.7908713 C23.3342542,26.5833289 25.1312034,24.7863798 27.3387458,24.7863798 C27.9985932,24.7863798 28.6197966,24.9506171 29.1695085,25.2336849 L26.4750508,27.9291086 C25.9987627,28.4053967 25.9987627,29.177312 26.4750508,29.6545662 C26.713678,29.8922272 27.0257288,30.0120238 27.3377797,30.0120238 C27.6498305,30.0120238 27.9618814,29.8922272 28.2005085,29.6545662 L30.894,26.9601086 C31.179,27.5088543 31.3422712,28.1310238 31.3422712,28.7908713 L31.3422712,28.7908713 Z M48.0819153,13.2337357 C48.0712881,13.2443628 48.060661,13.2540238 48.0500339,13.2656171 L43.8243051,17.4903798 L38.636339,17.4903798 L38.636339,12.3033798 L42.8533729,8.08537977 C42.8697966,8.07088825 42.8862203,8.05446452 42.9026441,8.03804079 L46.7738136,4.1668713 L46.7738136,8.13271875 C46.7738136,8.80609164 47.3206271,9.3529052 47.994,9.3529052 L51.9637119,9.3529052 L48.0819153,13.2337357 L48.0819153,13.2337357 Z" id="path-1"></path>
    </defs>
    <g id="Page-1" stroke="none" stroke-width="1" fill="none" fill-rule="evenodd" sketch:type="MSPage">
        <g id="target">
            <use fill="#E95459" fill-rule="evenodd" sketch:type="MSShapeGroup" xlink:href="#path-1"></use>
            <use fill="none" xlink:href="#path-1"></use>
        </g>
    </g>
</svg>