<?xml version="1.0" encoding="UTF-8"?>
<svg width="56px" height="55px" viewBox="0 0 56 55" version="1.1" xmlns="http://www.w3.org/2000/svg" xmlns:xlink="http://www.w3.org/1999/xlink" xmlns:sketch="http://www.bohemiancoding.com/sketch/ns">
    <title>tools</title>
    <description>Created with Sketch (http://www.bohemiancoding.com/sketch)</description>
    <defs></defs>
    <g id="Page-1" stroke="none" stroke-width="1" fill="none" fill-rule="evenodd" sketch:type="MSPage">
        <g id="tools" sketch:type="MSLayerGroup" transform="translate(0.000000, 1.000000)" fill="#E95459">
            <path d="M20.2426854,29.4301765 L3.24195506,46.607 C2.91916854,46.9318235 2.91916854,47.4591765 3.24195506,47.7846471 C3.40206742,47.9477059 3.61405618,48.0285882 3.82476404,48.0285882 C4.03547191,48.0285882 4.24682022,47.9477059 4.40757303,47.7846471 L21.4095843,30.6078235 C21.7310899,30.2823529 21.7310899,29.755 21.4095843,29.4301765 C21.0867978,29.1047059 20.5654719,29.1047059 20.2426854,29.4301765" id="Fill-1" sketch:type="MSShapeGroup"></path>
            <path d="M54.8423258,43.3762353 L33.1163596,21.4260588 L46.6298427,7.76988235 L47.4893258,8.63823529 L50.9291798,4.57470588 L48.6280449,2.24982353 L44.6060225,5.72582353 L45.4642247,6.59223529 L31.9501011,20.2484118 L25.2202584,13.4491176 C26.1239326,9.91941176 24.9903371,5.94194118 22.2575393,3.18094118 C20.1786404,1.07994118 17.3696292,-0.124235294 14.5510112,-0.124235294 C13.9131236,-0.124235294 13.2777978,-0.0627647059 12.6623258,0.0582352941 L11.1399775,0.357176471 L14.8552247,4.11011765 L13.8554831,8.57482353 L9.43638202,9.58488235 L5.72241573,5.83194118 L5.42588764,7.36870588 C4.76110112,10.8117059 5.91647191,14.4358824 8.51669663,17.0629412 C10.5968764,19.1645882 13.4052472,20.3694118 16.2225843,20.3694118 C17.0622135,20.3694118 17.8864719,20.2639412 18.6793483,20.0562353 L25.4085506,26.8548824 L24.2640674,28.0124706 L23.1022921,26.8387059 C22.6501348,26.3825294 22.0180112,26.1308235 21.3224831,26.1308235 C20.3791011,26.1308235 19.3992135,26.5740588 18.6338764,27.3479412 L1.20340449,44.9582941 C0.571921348,45.5956471 0.156910112,46.3908824 0.0358651685,47.1951765 C-0.097988764,48.081 0.144101124,48.9111765 0.700011236,49.4734706 L4.18853933,52.998 C4.64005618,53.4541765 5.27217978,53.7065294 5.96834831,53.7065294 C6.91173034,53.7065294 7.89097753,53.262 8.65695506,52.4887647 L26.087427,34.8784118 C27.4810449,33.4691176 27.702,31.4865294 26.5914607,30.3632353 L25.4303258,29.1901176 L26.574809,28.0325294 L48.3014157,49.9846471 C48.8835843,50.5721765 49.6745393,50.9099412 50.4699775,50.9099412 C51.2064944,50.9099412 51.8917753,50.6278235 52.3983708,50.1166471 L54.9729775,47.5148235 C56.0662247,46.4102941 56.0079438,44.5538824 54.8423258,43.3762353 L54.8423258,43.3762353 Z M48.6844045,4.66205882 L48.6280449,4.72870588 L48.4749775,4.57405882 L48.5409438,4.51711765 L48.6844045,4.66205882 L48.6844045,4.66205882 Z M24.9211685,33.6994706 L7.49005618,51.3098235 C7.03853933,51.7666471 6.46982022,52.0390588 5.96834831,52.0390588 C5.78710112,52.0390588 5.5341236,51.9995882 5.3541573,51.8190588 L1.86562921,48.2932353 C1.61841573,48.0441176 1.63442697,47.6552353 1.66580899,47.4449412 C1.73369663,46.9965294 1.9898764,46.5183529 2.36966292,46.1352941 L19.8001348,28.5249412 C20.2522921,28.0687647 20.8210112,27.7963529 21.3224831,27.7963529 C21.5030899,27.7963529 21.7567079,27.8345294 21.9360337,28.0157059 L25.4245618,31.5402353 C25.8107528,31.9310588 25.6986742,32.9132941 24.9211685,33.6994706 L24.9211685,33.6994706 Z M53.808,46.3365294 L51.2327528,48.9383529 C51.0380562,49.1357059 50.7671461,49.2437647 50.4712584,49.2437647 C50.1100449,49.2437647 49.7443483,49.0839412 49.4695955,48.8057059 L19.1487978,18.172 L18.6710225,18.326 C17.8909551,18.5764118 17.0679775,18.7032353 16.2238652,18.7032353 C13.8407528,18.7032353 11.4576404,17.6763529 9.6848764,15.8852941 C7.89802247,14.08 6.91108989,11.7324706 6.8931573,9.36941176 L8.91569663,11.4128235 L15.2369326,9.96858824 L16.6664157,3.58211765 L14.6477191,1.54323529 C17.0007303,1.57041176 19.3447753,2.59341176 21.0925618,4.35988235 C23.522427,6.81482353 24.4709326,10.3781765 23.5089775,13.4387647 L23.357191,13.9221176 L53.6786292,44.5558235 C54.1986742,45.0825294 54.2575955,45.8816471 53.808,46.3365294 L53.808,46.3365294 Z" id="Fill-2" sketch:type="MSShapeGroup"></path>
        </g>
    </g>
</svg>